<svg xmlns="http://www.w3.org/2000/svg" width="41" height="40" fill="none"><path fill="#1C5153" d="M40.12 20.092c.928 1.867-1.548 12.752-7.43 16.173-4.333 0-6.87 3.732-12.38 3.732-6.263 0-13.31-3.732-16.405-9.019C1.57 26.991.5 24.793.5 20.092c0-3.123 0-5.286 2.786-8.085C6.5 5.377 12.476.187 20.31.187c1.71 0 4.298 1.769 5.88 2.178 5.262 0 11.762 7.775 11.762 7.775s1.239 8.085 2.167 9.952Z"/><mask id="a" width="41" height="40" x="0" y="0" maskUnits="userSpaceOnUse" style="mask-type:alpha"><path fill="#D9D9D9" d="M40.31 20.092c.932 1.867-1.556 12.752-7.465 16.173-4.354 0-6.904 3.732-12.44 3.732-6.293 0-13.374-3.732-16.484-9.019C1.576 26.991.5 24.793.5 20.092c0-3.123 0-5.286 2.8-8.085C6.53 5.377 12.533.187 20.404.187c1.718 0 4.318 1.769 5.909 2.178 5.287 0 11.818 7.775 11.818 7.775s1.244 8.085 2.177 9.952Z"/></mask><g mask="url(#a)"><path fill="#267375" d="M36.886 9.83c-.995-1.99-1.866-4.146-1.866-5.908 0-.622-.39-1.839-.933-.933-.933 1.555-4.665.933-5.598.933-.933 0-5.91-1.866-6.531-1.866-.622 0-3.732.622-4.665.933-.934.31-5.599-1.555-6.532-1.555-.933 0-5.287 6.842-8.086 6.842-2.8 0-3.421 4.354-3.421 6.531 0 1.742 1.037 4.25 1.555 5.287.415.933 1.368 2.924 1.866 3.421.622.622 1.555 2.488 2.8 5.598 1.243 3.11 9.018 7.775 9.018 7.775h4.976c.933 0 7.465-.621 7.465-.621s3.573-1.273 5.439-2.206 3.891-4.637 5.135-6.814c1.244-2.177 1.555-5.598 1.555-5.909 0-.31-.933-9.02-2.177-11.507Z"/></g><path fill="#072121" d="M20.5 10c2.717 0 3.056.01 4.122.06 1.065.05 1.79.217 2.428.465.66.254 1.216.598 1.772 1.153.509.5.902 1.105 1.153 1.772.247.637.415 1.363.465 2.428.047 1.066.06 1.405.06 4.122 0 2.717-.01 3.056-.06 4.122-.05 1.065-.218 1.79-.465 2.428a4.883 4.883 0 0 1-1.153 1.772c-.5.508-1.105.902-1.772 1.153-.637.247-1.363.415-2.428.465-1.066.047-1.405.06-4.122.06-2.717 0-3.056-.01-4.122-.06-1.065-.05-1.79-.218-2.428-.465a4.89 4.89 0 0 1-1.772-1.153 4.903 4.903 0 0 1-1.153-1.772c-.248-.637-.415-1.363-.465-2.428-.047-1.066-.06-1.405-.06-4.122 0-2.717.01-3.056.06-4.122.05-1.066.217-1.79.465-2.428a4.88 4.88 0 0 1 1.153-1.772 4.896 4.896 0 0 1 1.772-1.153c.638-.248 1.362-.415 2.428-.465 1.066-.047 1.405-.06 4.122-.06Zm0 5a5 5 0 1 0 0 10 5 5 0 0 0 0-10Zm6.5-.25a1.25 1.25 0 1 0-2.5 0 1.25 1.25 0 0 0 2.5 0ZM20.5 17a3 3 0 1 1 0 6 3 3 0 0 1 0-6Z"/></svg>