<svg xmlns="http://www.w3.org/2000/svg" width="41" height="40" fill="none"><path fill="#1C5153" d="M40.12 20.092c.928 1.867-1.548 12.752-7.43 16.173-4.333 0-6.87 3.732-12.38 3.732-6.263 0-13.31-3.732-16.405-9.019C1.57 26.991.5 24.793.5 20.092c0-3.123 0-5.286 2.786-8.085C6.5 5.377 12.476.187 20.31.187c1.71 0 4.298 1.769 5.88 2.178 5.262 0 11.762 7.775 11.762 7.775s1.239 8.085 2.167 9.952Z"/><mask id="a" width="41" height="40" x="0" y="0" maskUnits="userSpaceOnUse" style="mask-type:alpha"><path fill="#D9D9D9" d="M40.31 20.092c.932 1.867-1.556 12.752-7.465 16.173-4.354 0-6.904 3.732-12.44 3.732-6.293 0-13.374-3.732-16.484-9.019C1.576 26.991.5 24.793.5 20.092c0-3.123 0-5.286 2.8-8.085C6.53 5.377 12.533.187 20.404.187c1.718 0 4.318 1.769 5.909 2.178 5.287 0 11.818 7.775 11.818 7.775s1.244 8.085 2.177 9.952Z"/></mask><g mask="url(#a)"><path fill="#267375" d="M36.886 9.83c-.995-1.99-1.866-4.146-1.866-5.908 0-.622-.39-1.839-.933-.933-.933 1.555-4.665.933-5.598.933-.933 0-5.91-1.866-6.531-1.866-.622 0-3.732.622-4.665.933-.934.31-5.599-1.555-6.532-1.555-.933 0-5.287 6.842-8.086 6.842-2.8 0-3.421 4.354-3.421 6.531 0 1.742 1.037 4.25 1.555 5.287.415.933 1.368 2.924 1.866 3.421.622.622 1.555 2.488 2.8 5.598 1.243 3.11 9.018 7.775 9.018 7.775h4.976c.933 0 7.465-.621 7.465-.621s3.573-1.273 5.439-2.206 3.891-4.637 5.135-6.814c1.244-2.177 1.555-5.598 1.555-5.909 0-.31-.933-9.02-2.177-11.507Z"/></g><g clip-path="url(#b)"><path fill="#072121" fill-rule="evenodd" d="M21 12c.855 0 1.732.022 2.582.058l1.004.048.961.057.9.061.822.064a3.802 3.802 0 0 1 3.494 3.423l.04.425.075.91c.07.943.122 1.971.122 2.954 0 .983-.052 2.011-.122 2.954l-.075.91c-.013.146-.026.287-.04.425a3.802 3.802 0 0 1-3.495 3.423l-.82.063-.9.062-.962.057-1.004.048A61.58 61.58 0 0 1 21 28a61.58 61.58 0 0 1-2.582-.058l-1.004-.048-.961-.057-.9-.062-.822-.063a3.802 3.802 0 0 1-3.494-3.423l-.04-.425-.075-.91A40.617 40.617 0 0 1 11 20c0-.983.052-2.011.122-2.954l.075-.91c.013-.146.026-.287.04-.425a3.802 3.802 0 0 1 3.493-3.423l.821-.064.9-.061.962-.057 1.004-.048c.86-.037 1.722-.057 2.583-.058Zm-2 5.575v4.85c0 .462.5.75.9.52l4.2-2.425a.6.6 0 0 0 0-1.04l-4.2-2.424a.6.6 0 0 0-.9.52v-.001Z" clip-rule="evenodd"/></g><g clip-path="url(#c)"><path fill="#072121" fill-rule="evenodd" d="M20.5 12c.855 0 1.732.022 2.582.058l1.004.048.961.057.9.061.822.064a3.802 3.802 0 0 1 3.494 3.423l.04.425.075.91c.07.943.122 1.971.122 2.954 0 .983-.052 2.011-.122 2.954l-.075.91c-.013.146-.026.287-.04.425a3.802 3.802 0 0 1-3.495 3.423l-.82.063-.9.062-.962.057-1.004.048A61.58 61.58 0 0 1 20.5 28a61.58 61.58 0 0 1-2.582-.058l-1.004-.048-.961-.057-.9-.062-.822-.063a3.802 3.802 0 0 1-3.494-3.423l-.04-.425-.075-.91A40.617 40.617 0 0 1 10.5 20c0-.983.052-2.011.122-2.954l.075-.91c.013-.146.026-.287.04-.425a3.802 3.802 0 0 1 3.493-3.423l.821-.064.9-.061.962-.057 1.004-.048c.86-.037 1.722-.057 2.583-.058Zm-2 5.575v4.85c0 .462.5.75.9.52l4.2-2.425a.6.6 0 0 0 0-1.04l-4.2-2.424a.6.6 0 0 0-.9.52v-.001Z" clip-rule="evenodd"/></g><defs><clipPath id="b"><path fill="#fff" d="M9 8h24v24H9z"/></clipPath><clipPath id="c"><path fill="#fff" d="M8.5 8h24v24h-24z"/></clipPath></defs></svg>