<svg xmlns="http://www.w3.org/2000/svg" width="48" height="51" fill="none"><path fill="url(#a)" fill-rule="evenodd" d="m45.719 34.549.601-.27s-1.108-5.996-2.433-9.643c-1.324-3.647-2.873-8.65-2.871-11.35.008-3.123 1.446-7.075 1.446-7.075l-4.036 4.258-1.144 6.119 8.437 17.96Z" clip-rule="evenodd"/><path fill="url(#b)" fill-rule="evenodd" d="m2.664 2.248-.897.211 1.677 26.595L5.87 50.195 7 50.027S4.294 18.163 4.465 17.938c.17-.224.174-11.75-1.801-15.69Z" clip-rule="evenodd"/><path fill="url(#c)" fill-rule="evenodd" d="M8.123 49.816 4.135 3.221l-1.472-.973 1.486 12.946.23 13.017 2.088 21.915 1.656-.31Z" clip-rule="evenodd"/><path fill="url(#d)" fill-rule="evenodd" d="M45.719 34.55s-14.333-2.65-25.195-3.398c-10.862-.744-13.013-.11-13.013-.11l-4.397.335-.228-1.98 4.2-.482S8.48 13.361 6.046 6.387L1.41 6.091l-.174-1.514s3.263.024 5.367-.589c0 0 9.348-3.099 18.233-2.585 8.885.514 14.941 3.846 17.63 4.804-.07.17-2.282 5.54-1.916 8.732.312 2.714 3.985 9.604 4.954 15.964l.002.011c.188 1.24.275 2.462.216 3.631l-.003.004Z" clip-rule="evenodd"/><path fill="url(#e)" fill-rule="evenodd" d="M45.502 30.908c-.057-.226-.956-3.829-5.116-8.033-4.299-4.344-6.705-4.997-5.833-7.637.858-2.597 7.714-8.852 7.906-9.025-.07.167-2.282 5.536-1.916 8.728.312 2.714 3.985 9.604 4.954 15.964l.005.003Z" clip-rule="evenodd"/><path fill="#6E5467" fill-rule="evenodd" d="M2.922 4.522s-.2 1.181.026 1.667L1.406 6.09s-.33-.803-.173-1.514l1.69-.05-.001-.005ZM4.479 29.215s-.204 1.147.196 2.046l-1.56.117s-.426-.629-.226-1.98l1.593-.183H4.48Z" clip-rule="evenodd"/><path fill="url(#f)" fill-rule="evenodd" d="m25.675 28.17-4.553-9.75a4.806 4.806 0 0 1-.48-1.727c-.19-2.395 1.527-4.327 3.83-4.305 2.304.022 4.326 1.986 4.501 4.386.044.615-.036 1.201-.218 1.726l-3.08 9.67Zm-1.027-13.52c-1.107-.01-1.93.914-1.84 2.065.09 1.152 1.056 2.086 2.16 2.1 1.103.012 1.93-.912 1.845-2.06-.086-1.152-1.054-2.094-2.161-2.103l-.004-.003Zm.4 6.405a4.358 4.358 0 0 1-2.511-.92l.563 1.21 2.355 5.042-.407-5.332Z" clip-rule="evenodd"/><path fill="url(#g)" fill-rule="evenodd" d="m31.489 23.248-1.76-3.682a4.9 4.9 0 0 1-1.887 2.099l3.65 1.583h-.003Z" clip-rule="evenodd"/><path fill="url(#h)" fill-rule="evenodd" d="m19.106 23.108 3.4-1.506a6.326 6.326 0 0 1-2.204-2.14l-1.197 3.642v.004Z" clip-rule="evenodd"/><path fill="url(#i)" fill-rule="evenodd" d="m18.071 10.19 3.667 1.596a4.936 4.936 0 0 0-1.88 2.118l-1.79-3.714h.003Z" clip-rule="evenodd"/><path fill="url(#j)" fill-rule="evenodd" d="m30.549 10.293-1.233 3.697a6.324 6.324 0 0 0-2.21-2.16l3.443-1.537Z" clip-rule="evenodd"/><path fill="url(#k)" fill-rule="evenodd" d="m35.89 16.843-6.1 2.59c.35-.783.512-1.685.444-2.645a6.209 6.209 0 0 0-.83-2.666l6.49 2.72-.003.001Zm-1.75-.109-3.652-1.532c.16.489.26.992.303 1.499l3.35.033Z" clip-rule="evenodd"/><path fill="url(#l)" fill-rule="evenodd" d="m23.919 5.14 3.06 6.619a5.587 5.587 0 0 0-2.607-.688 4.909 4.909 0 0 0-2.505.644l2.055-6.576h-.003Zm.047 1.826-1.155 3.7c.46-.127.938-.19 1.423-.195l-.268-3.505Z" clip-rule="evenodd"/><path fill="url(#m)" fill-rule="evenodd" d="m13.757 16.627 6.046-2.596a5.551 5.551 0 0 0-.425 2.647c.075.956.376 1.863.844 2.653l-6.466-2.708v.004Zm1.721-.078 3.326.033a6.302 6.302 0 0 1 .076-1.492l-3.402 1.46Z" clip-rule="evenodd"/><path fill="url(#n)" fill-rule="evenodd" d="M26.69 7.246a10.479 10.479 0 0 1 4.295 2.563 11.132 11.132 0 0 1 2.725 4.3l.496-.213a11.709 11.709 0 0 0-2.859-4.49 11.067 11.067 0 0 0-4.486-2.69l-.166.534-.005-.004Z" clip-rule="evenodd"/><path fill="url(#o)" fill-rule="evenodd" d="M15.514 13.94c.314-1.63 1.034-3.084 2.057-4.244a8.363 8.363 0 0 1 3.895-2.491l-.25-.537a8.834 8.834 0 0 0-4.062 2.62 9.449 9.449 0 0 0-2.162 4.43l.526.219-.004.004Z" clip-rule="evenodd"/><path fill="url(#p)" fill-rule="evenodd" d="M22.935 26.106c-1.593-.48-3.046-1.359-4.251-2.522a11.117 11.117 0 0 1-2.73-4.24l-.49.207a11.733 11.733 0 0 0 2.868 4.426c1.257 1.215 2.773 2.137 4.435 2.647l.164-.518h.004Z" clip-rule="evenodd"/><path fill="url(#q)" fill-rule="evenodd" d="M34.097 19.53c-.334 1.622-1.067 3.061-2.103 4.203a8.405 8.405 0 0 1-3.887 2.433l.245.525a8.845 8.845 0 0 0 4.058-2.553c1.081-1.193 1.853-2.695 2.214-4.386l-.523-.22-.004-.003Z" clip-rule="evenodd"/><path fill="#704786" fill-rule="evenodd" d="M27.139 1.604S22.48 9.94 14.94 16.78c0 0 12.091-9.063 15.378-11.214 3.284-2.15 7.568 1.265 7.853 1.658.11.15-.795 2.516-2.311 5.556-2.444 4.896-6.485 11.53-10.441 13.424-6.412 3.072-15.953-2.32-16.744-5.99-.791-3.669-1.349-6.239-1.349-6.239s.212 11.381-.235 14.937l2.004 1.947s16.083-.367 36.629 3.687c0 0 .828-5.776-5.333-11.675-6.162-5.9-5.938-5.697-5.839-6.742.1-1.046 4.167-7.89 7.915-9.92 0 0-8.365-3.873-15.325-4.612l-.003.008Z" clip-rule="evenodd" opacity=".6" style="mix-blend-mode:multiply"/><path fill="url(#r)" fill-rule="evenodd" d="M20.732 1.3s-3.286 10.995-10.12 18.177c0 0 7.983-3.182 16.522-17.871 0 0-5.564-.453-6.402-.307Z" clip-rule="evenodd" opacity=".5" style="mix-blend-mode:screen"/><path fill="url(#s)" fill-rule="evenodd" d="M40.51 14.22s-3.12.203-5.744 2.998c0 0-1.856-2.498 7.7-11.007 0 0-1.897 5.055-1.955 8.008Z" clip-rule="evenodd" opacity=".5" style="mix-blend-mode:screen"/><path fill="#F1E3D8" fill-rule="evenodd" d="m3.271 26.336.975-.503-.028-10.016-1.619-.135.672 10.654Z" clip-rule="evenodd" opacity=".5" style="mix-blend-mode:soft-light"/><path fill="#F19A64" fill-rule="evenodd" d="m4.16 16.739-.36-3.135-.078-2.128.611 3.748-.173 1.515Z" clip-rule="evenodd"/><path fill="#704786" fill-rule="evenodd" d="m2.033 6.133.048 1.288 2.467.642-.15-1.78-2.365-.15ZM3.708 31.334l.208 1.808 2.812.354-.204-2.377-2.816.215Z" clip-rule="evenodd" opacity=".6" style="mix-blend-mode:multiply"/><defs><linearGradient id="a" x1="37.801" x2="44.716" y1="21.102" y2="20.308" gradientUnits="userSpaceOnUse"><stop stop-color="#471940"/><stop offset="1" stop-color="#39152F"/></linearGradient><linearGradient id="c" x1="7.973" x2="2.499" y1="49.953" y2="2.267" gradientUnits="userSpaceOnUse"><stop stop-color="#5F123E"/><stop offset="1" stop-color="#BE423B"/></linearGradient><linearGradient id="d" x1="1.977" x2="43.886" y1="21.512" y2="16.701" gradientUnits="userSpaceOnUse"><stop stop-color="#5B3255"/><stop offset="1" stop-color="#39152F"/></linearGradient><linearGradient id="e" x1="40.83" x2="37.993" y1="31.444" y2="6.726" gradientUnits="userSpaceOnUse"><stop stop-color="#39152F"/><stop offset="1" stop-color="#5B3255"/></linearGradient><linearGradient id="f" x1="24.69" x2="24.905" y1="35.502" y2="6.394" gradientUnits="userSpaceOnUse"><stop stop-color="#C79296"/><stop offset="1" stop-color="#FFF4D0"/></linearGradient><linearGradient id="g" x1="29.571" x2="29.799" y1="37.123" y2="6.337" gradientUnits="userSpaceOnUse"><stop stop-color="#C79296"/><stop offset="1" stop-color="#FFF4D0"/></linearGradient><linearGradient id="h" x1="20.735" x2="20.939" y1="34.109" y2="6.466" gradientUnits="userSpaceOnUse"><stop stop-color="#C79296"/><stop offset="1" stop-color="#FFF4D0"/></linearGradient><linearGradient id="i" x1="19.751" x2="19.977" y1="36.238" y2="5.2" gradientUnits="userSpaceOnUse"><stop stop-color="#C79296"/><stop offset="1" stop-color="#FFF4D0"/></linearGradient><linearGradient id="j" x1="28.675" x2="28.885" y1="35.301" y2="7.27" gradientUnits="userSpaceOnUse"><stop stop-color="#C79296"/><stop offset="1" stop-color="#FFF4D0"/></linearGradient><linearGradient id="k" x1="32.515" x2="32.732" y1="36.319" y2="6.994" gradientUnits="userSpaceOnUse"><stop stop-color="#C79296"/><stop offset="1" stop-color="#FFF4D0"/></linearGradient><linearGradient id="l" x1="24.281" x2="24.486" y1="34.418" y2="6.209" gradientUnits="userSpaceOnUse"><stop stop-color="#C79296"/><stop offset="1" stop-color="#FFF4D0"/></linearGradient><linearGradient id="m" x1="16.883" x2="17.1" y1="34.93" y2="5.667" gradientUnits="userSpaceOnUse"><stop stop-color="#C79296"/><stop offset="1" stop-color="#FFF4D0"/></linearGradient><linearGradient id="n" x1="30.266" x2="30.508" y1="39.873" y2="6.662" gradientUnits="userSpaceOnUse"><stop stop-color="#C79296"/><stop offset="1" stop-color="#FFF4D0"/></linearGradient><linearGradient id="o" x1="18.088" x2="18.284" y1="32.497" y2="5.943" gradientUnits="userSpaceOnUse"><stop stop-color="#C79296"/><stop offset="1" stop-color="#FFF4D0"/></linearGradient><linearGradient id="p" x1="19.121" x2="19.363" y1="36.159" y2="3.455" gradientUnits="userSpaceOnUse"><stop stop-color="#C79296"/><stop offset="1" stop-color="#FFF4D0"/></linearGradient><linearGradient id="q" x1="31.286" x2="31.482" y1="34.994" y2="8.835" gradientUnits="userSpaceOnUse"><stop stop-color="#C79296"/><stop offset="1" stop-color="#FFF4D0"/></linearGradient><linearGradient id="r" x1="9.648" x2="27.98" y1="11.08" y2="8.975" gradientUnits="userSpaceOnUse"><stop/><stop offset="1" stop-color="#D7883D"/></linearGradient><linearGradient id="s" x1="34.105" x2="43.036" y1="12.232" y2="11.207" gradientUnits="userSpaceOnUse"><stop/><stop offset="1" stop-color="#D7883D"/></linearGradient><radialGradient id="b" cx="0" cy="0" r="1" gradientTransform="rotate(173.452 1.67 8.428) scale(17.9654 18.0519)" gradientUnits="userSpaceOnUse"><stop stop-color="#E16419"/><stop offset="1" stop-color="#CF463E"/></radialGradient></defs></svg>