<svg xmlns="http://www.w3.org/2000/svg" width="36" height="36" fill="none"><path fill="#fff" fill-opacity=".48" d="M32.005 22.375c-.029.066-.058.131-.085.197a1.099 1.099 0 0 1-1.17.665 1.097 1.097 0 0 1-.928-1.004c-.008-.108-.005-.218-.005-.328V10.75c0-.397-.046-.783-.229-1.14-.39-.762-1.021-1.174-1.87-1.225-.489-.029-.981-.005-1.491-.005-.007.075-.019.144-.02.213-.001.264-.006.529 0 .793.02.706-.51 1.178-1.102 1.173-.596-.005-1.102-.483-1.088-1.16.008-.328.002-.656.002-.98-.206-.057-4.383-.078-4.96-.027-.006.067-.016.136-.017.205-.002.301.008.603-.005.902a1.088 1.088 0 0 1-1.1 1.061 1.086 1.086 0 0 1-1.078-1.056c-.014-.364-.003-.727-.003-1.087-.21-.052-4.45-.07-4.91-.022-.005.067-.013.136-.014.206-.003.31.01.62-.007.93a1.088 1.088 0 0 1-2.175-.003c-.015-.273-.005-.548-.006-.821v-.312c-.074-.008-.135-.02-.196-.02-.383-.001-.766-.008-1.148.002-1.22.028-2.13.883-2.2 2.096-.033.562-.006 1.127-.006 1.723.112.003.217.007.323.007h14.356c1.832 0 3.665 0 5.496.002.145 0 .294.007.433.041.524.13.865.61.82 1.14-.043.527-.458.947-.992.997-.118.011-.237.007-.355.007H6.21c-.007.076-.02.144-.02.213 0 4.311-.004 8.622.002 12.934.001.927.409 1.625 1.244 2.054.28.143.584.2.895.22.064.003.128.002.192.002l18.95.001c.387 0 .764-.052 1.111-.23.7-.359 1.103-.93 1.208-1.709.015-.108.019-.217.03-.326.05-.535.436-.94.955-1.007.5-.065.976.23 1.163.719.02.05.043.097.064.146v.71c-.018.059-.045.116-.054.176-.237 1.67-1.537 3.123-3.176 3.548-.217.057-.435.107-.653.16H7.885c-.05-.017-.097-.043-.148-.052-1.476-.245-2.56-1.037-3.259-2.354C4.124 28.929 4 28.209 4 27.459c.003-5.432.002-10.864.002-16.296 0-.218-.002-.437.002-.656.012-.675.157-1.32.475-1.917.707-1.324 1.795-2.138 3.29-2.344.546-.076 1.108-.043 1.663-.06.097-.002.195 0 .313 0V5.89c0-.283-.01-.566.005-.847a1.088 1.088 0 0 1 2.158-.157c.025.124.022.254.023.38.003.299.001.597.001.904h4.922v-.284c.001-.283-.01-.565.006-.847a1.09 1.09 0 0 1 2.165-.123c.022.133.016.272.017.408.002.28 0 .56 0 .845h4.977v-.314c.001-.273-.01-.547.006-.82a1.088 1.088 0 0 1 2.164-.117c.026.16.016.327.018.491.002.252 0 .504 0 .777.402 0 .775-.007 1.146.002.3.007.602.014.899.052 1.695.217 3.163 1.518 3.593 3.174.056.218.107.437.16.655v12.306Z"/><path fill="#fff" fill-opacity=".48" d="M17.037 22.059c.159.225.322.442.47.67.329.51.443 1.08.372 1.673-.172 1.435-.923 2.466-2.276 2.981-1.727.659-3.424-.064-4.314-1.465a1.08 1.08 0 0 1 .292-1.478 1.073 1.073 0 0 1 1.487.228c.203.26.41.506.721.65.688.317 1.746-.027 1.904-1.046a.695.695 0 0 0-.181-.605 2.017 2.017 0 0 0-.79-.523c-.471-.18-.758-.558-.764-1.025-.006-.467.275-.864.735-1.047.395-.156.69-.433.92-.783.107-.162.107-.344.07-.528-.112-.562-.56-1.01-1.128-1.082-.532-.068-1.014.054-1.37.498-.148.185-.295.37-.522.469a1.1 1.1 0 0 1-1.273-.266 1.08 1.08 0 0 1-.097-1.318 3.092 3.092 0 0 1 1.25-1.154c1.248-.614 2.502-.63 3.698.116 1.084.675 1.624 1.692 1.65 2.97.013.662-.233 1.244-.63 1.766-.067.087-.137.17-.205.256-.01.014-.015.033-.02.043h.001ZM22.38 19.806c-.19.14-.337.26-.496.362a1.08 1.08 0 0 1-1.658-.666c-.098-.407.026-.756.323-1.042.125-.119.267-.219.404-.325l1.748-1.356c.212-.165.442-.289.716-.303a1.08 1.08 0 0 1 1.113.855c.03.14.037.289.037.433.002 2.86.002 5.72 0 8.58 0 .153-.006.311-.043.458-.129.524-.61.864-1.138.82a1.093 1.093 0 0 1-.998-.992c-.01-.109-.007-.218-.007-.328v-6.496h-.001Z"/></svg>