<svg xmlns="http://www.w3.org/2000/svg" width="36" height="36" fill="none"><path fill="#fff" fill-opacity=".48" fill-rule="evenodd" d="M2 7.2c0-.47.38-.85.85-.85h30.3c.47 0 .85.38.85.85v21.6c0 .47-.38.85-.85.85H2.85A.85.85 0 0 1 2 28.8V7.2Zm1.7.85h2.152v15.027a6.599 6.599 0 0 0-2.152-.752V8.05Zm5.544 19.9c-.347-1.614-1.033-2.822-1.876-3.7h21.116c-.843.878-1.529 2.086-1.875 3.7H9.244Zm-3.71-3.059c.798.59 1.561 1.54 1.962 3.059H3.7v-3.895a4.91 4.91 0 0 1 1.833.836Zm22.822 3.059H32.3v-3.925a4.905 4.905 0 0 0-1.981.866c-.799.59-1.562 1.54-1.963 3.059Zm3.944-5.648V8.05h-2.148v14.946a6.573 6.573 0 0 1 2.148-.694ZM22.85 8.05h5.602v2.1H22.85v-2.1Zm0 3.8V15c0 .47-.38.85-.85.85h-8a.85.85 0 0 1-.85-.85v-3.15H7.552v10.7h20.9v-10.7H22.85Zm-15.298-1.7h5.598v-2.1H7.552v2.1Zm13.598-2.1h-6.3v6.1h6.3v-6.1ZM18 9.15c.47 0 .85.381.85.85v2a.85.85 0 0 1-1.7 0v-2c0-.469.38-.85.85-.85Z" clip-rule="evenodd"/></svg>