<svg xmlns="http://www.w3.org/2000/svg" width="36" height="36" fill="none"><path fill="#fff" fill-opacity=".48" fill-rule="evenodd" d="M5 3a1 1 0 0 1 1-1h4a1 1 0 0 1 1 1v1.647a.999.999 0 0 1 .258.224c.23.281.764.748 1.977.89 1.246.147 3.224-.048 6.282-1.195 3.214-1.205 5.39-1.508 7.008-1.308 1.585.196 2.529.87 3.215 1.36l.098.07a1 1 0 0 1 .42.814V21.87a1 1 0 0 1-1.572.82l-.108-.076c-.757-.529-1.453-1.016-2.563-1.19-1.174-.185-2.935-.03-5.761 1.15-3.03 1.267-5.308 1.574-7.022 1.37-.912-.11-1.647-.362-2.232-.673V33a1 1 0 0 1-1 1H6a1 1 0 0 1-1-1V3Zm2 1V32h2V4H7Zm8.871 11.603a1 1 0 0 0 1.414 1.415l2.02-2.02 2.022 2.02a1 1 0 1 0 1.414-1.414l-2.021-2.021 2.02-2.02a1 1 0 0 0-1.413-1.415l-2.021 2.02-2.02-2.02a1 1 0 1 0-1.415 1.415l2.02 2.02-2.02 2.02Zm4.348-9.164c3.072-1.152 4.898-1.34 6.06-1.196.886.11 1.444.414 1.98.779v14.042a6.62 6.62 0 0 0-1.933-.617c-1.67-.263-3.821.018-6.843 1.281-2.82 1.178-4.743 1.38-6.014 1.228-.972-.116-1.597-.442-1.987-.747V7.383c.432.167.936.296 1.52.365 1.675.197 3.99-.099 7.217-1.31Z" clip-rule="evenodd"/></svg>