<svg xmlns="http://www.w3.org/2000/svg" width="36" height="36" fill="none"><path fill="#fff" fill-opacity=".48" fill-rule="evenodd" d="m36 14.132-.031.158c-.032.163-.064.326-.094.49a7.463 7.463 0 0 1-5.938 5.97c-.068.013-.135.03-.207.047l-.116.027a8.128 8.128 0 0 1-.005.103c-.005.07-.009.14-.009.21 0 .258-.002.516-.004.775-.004.667-.009 1.335.01 2.001.018.669-.463 1.2-1.205 1.198-6.934-.012-13.867-.012-20.802 0-.733.002-1.225-.524-1.205-1.197.019-.63.015-1.259.01-1.888-.002-.273-.003-.545-.003-.818v-.369a6.12 6.12 0 0 1-.096-.027c-.07-.021-.138-.041-.207-.055C2.978 20.15.652 17.78.094 14.643l-.059-.319A67.113 67.113 0 0 1 0 14.132v-.844c.238-.636.702-.868 1.37-.846.62.02 1.24.016 1.86.012.34-.003.68-.005 1.021-.003.552.003 1.03-.187 1.453-.53.565-.457.861-1.06.973-1.771.223-1.418.631-2.782 1.27-4.07C9.32 3.304 11.44 1.366 14.403.396c.444-.145.9-.264 1.36-.333.575-.086 1.054.28 1.162.83.02.097.02.2.02.3v.05l-.001.607c-.002.372-.003.743.005 1.114.013.615.49 1.064 1.087 1.047.562-.015 1.005-.46 1.016-1.047.006-.324.005-.648.003-.973-.001-.308-.003-.616.003-.925.012-.703.595-1.178 1.278-1.043 3.024.6 5.398 2.168 7.061 4.777 1.108 1.737 1.701 3.66 1.995 5.684.131.908.641 1.52 1.498 1.82.28.098.595.135.894.14.652.01 1.304.01 1.955.008.38-.001.758-.002 1.137 0 .51.002.867.24 1.056.719a.463.463 0 0 0 .045.08l.023.038v.843ZM14.84 2.482c-.037.012-.068.02-.095.028a1.3 1.3 0 0 0-.123.038 8.482 8.482 0 0 0-3.53 2.53c-1.1 1.325-1.77 2.857-2.157 4.522-.05.216-.093.434-.134.652a10.5 10.5 0 0 1-.233 1.027c-.564 1.898-2.374 3.324-4.375 3.282-.36-.008-.72-.005-1.079-.003l-.503.002h-.362l.01.096c.006.056.01.1.021.144.56 2.29 2.683 3.971 5.056 3.973 6.639.006 13.277.004 19.916.001h1.421c.233 0 .469-.022.699-.061 2.18-.373 3.59-1.642 4.297-3.717.029-.085.044-.173.061-.273l.03-.163h-.38l-.537.003c-.43.003-.86.007-1.29-.015a4.42 4.42 0 0 1-1.138-.184c-1.81-.586-2.86-1.826-3.133-3.717-.198-1.376-.569-2.702-1.207-3.942-1.023-1.99-2.56-3.41-4.668-4.193a1.017 1.017 0 0 0-.15-.038 3.536 3.536 0 0 1-.1-.021c.063.966-.124 1.831-.75 2.555-.632.73-1.436 1.11-2.407 1.113a3.046 3.046 0 0 1-2.113-.811c-.828-.746-1.113-1.704-1.047-2.826v-.001Zm12.634 18.43c-.613-.064-18.692-.04-18.948.023v2.041h18.948v-2.064ZM21.584 36c-.1-.027-.2-.051-.3-.075a7.527 7.527 0 0 1-.64-.176c-1.9-.646-3.094-1.947-3.571-3.9a1.835 1.835 0 0 0-.029-.101c-.004-.014-.01-.026-.018-.048l-.024-.061-.353-.064h-.001c-.257-.047-.52-.095-.786-.14l-2.246-.372-.004-.001a2176.513 2176.513 0 0 1-4.222-.703l-2.423-.404-.66-.108c-.37-.06-.738-.118-1.106-.183-.6-.106-1.002-.663-.895-1.223a1.071 1.071 0 0 1 1.252-.858c1.167.194 2.333.39 3.5.586h.003a3647.527 3647.527 0 0 0 7.677 1.28.607.607 0 0 0 .12.003l.085-.002.002-.225c.003-.16.005-.319-.004-.476-.046-.731.538-1.195 1.171-1.192 2.729.017 5.459.018 8.187 0 .666-.004 1.218.464 1.195 1.21-.018.56-.014 1.12-.01 1.687.002.25.004.502.004.755l.073.026c.05.018.1.036.15.045 1.016.17 2.032.337 3.048.504.399.065.697.27.857.645.326.763-.3 1.557-1.142 1.449-.216-.028-.43-.066-.645-.104-.097-.017-.194-.035-.29-.05l-.809-.137-1.787-.3c-.024-.003-.05 0-.067.003l-.015.001c-.082.107-.16.214-.239.32-.169.23-.335.455-.522.661a5.108 5.108 0 0 1-3.124 1.667.715.715 0 0 0-.136.039l-.061.02h-1.195v.002Zm-2.53-5.841c-.007.418-.012.824.07 1.228.291 1.452 1.635 2.522 3.146 2.502 1.486-.02 2.805-1.121 3.039-2.576.052-.327.056-.661.06-.995.002-.135.004-.27.009-.405.002-.052-.009-.105-.018-.158a1.661 1.661 0 0 1-.013-.074h-6.291c.002.162 0 .32-.003.478Zm.701-20.345c.11-.081.216-.161.32-.24.224-.168.44-.331.659-.489.329-.236.686-.287 1.062-.121.715.314.845 1.257.24 1.772-.152.128-.312.245-.471.362-.077.056-.153.112-.229.17l-.195.15a23.4 23.4 0 0 1-.102.08c.177.945.14 1.14.051 1.6-.017.09-.036.19-.056.308l.297.223c.222.167.448.336.668.511.338.27.491.627.399 1.057-.16.745-.98 1.07-1.625.646a8.266 8.266 0 0 1-.482-.352 7.654 7.654 0 0 0-.541-.394c-1.16.683-2.313.695-3.502 0-.023.015-.046.03-.07.048-.063.042-.13.088-.195.136-.088.064-.174.13-.26.197-.166.126-.33.252-.503.367-.488.324-1.108.215-1.44-.239a1.04 1.04 0 0 1 .193-1.447c.216-.176.441-.343.672-.513.107-.08.216-.16.325-.243-.162-.618-.199-1.24.013-1.889l-.265-.202a112.29 112.29 0 0 0-.51-.386c-.075-.055-.151-.11-.224-.17-.454-.373-.544-.989-.213-1.445.343-.472.964-.58 1.464-.242.178.12.349.25.52.38.09.07.18.138.27.205.043.03.087.06.137.092l.09.059c.534-.32 1.114-.521 1.749-.519.624.002 1.195.189 1.754.528Zm-.704 2.645A1.055 1.055 0 0 1 18 13.502a1.058 1.058 0 0 1-1.055-1.039 1.072 1.072 0 0 1 1.068-1.067c.566.01 1.042.497 1.038 1.063Z" clip-rule="evenodd"/></svg>