<svg xmlns="http://www.w3.org/2000/svg" width="54" height="60" fill="none"><g filter="url(#a)"><path fill="#fff" fill-opacity=".48" fill-rule="evenodd" d="M27.172 13.975a5.877 5.877 0 0 0-5.473 3.722h10.947a5.877 5.877 0 0 0-5.474-3.722Zm-7.857 5.853c0-.052 0-.104.002-.156h-4.883v25.386h25.482V19.672h-4.888l.002.155v1.14a.99.99 0 0 1-.992.988.99.99 0 0 1-.99-.987v-1.14l-.003-.156H21.3a6.17 6.17 0 0 0-.002.155v1.14a.99.99 0 0 1-.99.988.99.99 0 0 1-.992-.987v-1.14ZM27.172 12a7.856 7.856 0 0 0-7.563 5.697h-6.167a.99.99 0 0 0-.99.988v27.36a.99.99 0 0 0 .99.987h27.465a.99.99 0 0 0 .99-.987v-27.36a.99.99 0 0 0-.99-.988h-6.172A7.856 7.856 0 0 0 27.172 12Zm-4.95 14a.855.855 0 0 0-.635.28l-3.075 3.405a.848.848 0 0 0-.014 1.122l8.201 9.532a.855.855 0 0 0 1.308-.014l7.86-9.532a.848.848 0 0 0-.026-1.108l-3.075-3.404a.855.855 0 0 0-.635-.282h-9.91Zm-1.16 3.403.872-.965.382.965h-1.254Zm-.06 1.7h1.988l1.698 4.285L21 31.103Zm12.4 0-3.508 4.254 1.573-4.254h1.935Zm-8.578 0h4.825l-2.33 6.298-2.495-6.298Zm-.673-1.7h6.126l.63-1.704h-7.431l.675 1.704Zm9.14 0h-1.195l.347-.938.848.938Z" clip-rule="evenodd"/></g><defs><filter id="a" width="60.137" height="60.033" x="-2.893" y="-1" color-interpolation-filters="sRGB" filterUnits="userSpaceOnUse"><feFlood flood-opacity="0" result="BackgroundImageFix"/><feColorMatrix in="SourceAlpha" result="hardAlpha" values="0 0 0 0 0 0 0 0 0 0 0 0 0 0 0 0 0 0 127 0"/><feOffset/><feGaussianBlur stdDeviation="6"/><feComposite in2="hardAlpha" operator="out"/><feColorMatrix values="0 0 0 0 0.245417 0 0 0 0 0.764192 0 0 0 0 0.775 0 0 0 1 0"/><feBlend in2="BackgroundImageFix" result="effect1_dropShadow_530_359"/><feBlend in="SourceGraphic" in2="effect1_dropShadow_530_359" result="shape"/></filter></defs></svg>