<svg xmlns="http://www.w3.org/2000/svg" width="36" height="36" fill="none"><path fill="#7E8E8E" d="m7.172 21.338 5.493-14.982a8.166 8.166 0 0 1 1.446-2.445c.746-.887 1.731-1.63 2.85-2.148a8.142 8.142 0 0 1 10.765 3.824 8.843 8.843 0 0 1 3.162 2.031 8.759 8.759 0 0 1 2.582 6.234v.716h-2.083a6.265 6.265 0 0 1-1.636 2.838 6.272 6.272 0 0 1-4.356 1.846l-1.86 5.073a9.465 9.465 0 0 1-6.12 5.82v3.51h-1.432v-3.193c-.296.042-.595.07-.895.084v3.109h-1.432V30.5a9.505 9.505 0 0 1-2.251-.526l-.284-.105L2 35l5.172-13.662Zm2.933-3.378-3.191 8.274c.243.038.494.057.75.057 3.94 0 8.59-4.316 9.815-7.89a2.575 2.575 0 0 0-1.6-3.267 4.546 4.546 0 0 0-5.774 2.827Zm19.77-9.33a7.416 7.416 0 0 0-1.5-1.157 8.158 8.158 0 0 1-.321 4.525l-.417 1.138h4.368a7.33 7.33 0 0 0-2.13-4.506Zm-1.136 7.763a4.853 4.853 0 0 0 1.151-1.825h-2.778l-1.177 3.211a4.848 4.848 0 0 0 2.804-1.386ZM11.898 28.63a8.017 8.017 0 0 0 2.767.495c3.34 0 6.365-2.126 7.526-5.291l4.52-12.327c1.282-3.498-.51-7.384-3.995-8.661a6.696 6.696 0 0 0-5.154.217 6.84 6.84 0 0 0-3.553 3.787l-2.751 7.504a5.963 5.963 0 0 1 5.085-.574 4.009 4.009 0 0 1 2.49 5.086c-.697 2.036-2.339 4.27-4.39 5.975-2.236 1.86-4.644 2.883-6.778 2.883-.457 0-.9-.049-1.326-.142l-1.604 4.238 6.26-3.52.903.33Z"/><path fill="#7E8E8E" d="M17.746 9.625a2.956 2.956 0 0 1 2.953-2.953 2.956 2.956 0 0 1 2.953 2.953 2.956 2.956 0 0 1-2.953 2.953 2.956 2.956 0 0 1-2.953-2.953Zm2.953 1.521c.838 0 1.521-.682 1.521-1.52 0-.84-.682-1.522-1.521-1.522-.84 0-1.522.682-1.522 1.521 0 .839.683 1.521 1.522 1.521Z"/><path stroke="#7E8E8E" stroke-width=".6" d="m7.172 21.338 5.493-14.982a8.166 8.166 0 0 1 1.446-2.445c.746-.887 1.731-1.63 2.85-2.148a8.142 8.142 0 0 1 10.765 3.824 8.843 8.843 0 0 1 3.162 2.031 8.759 8.759 0 0 1 2.582 6.234v.716h-2.083a6.265 6.265 0 0 1-1.636 2.838 6.272 6.272 0 0 1-4.356 1.846l-1.86 5.073a9.465 9.465 0 0 1-6.12 5.82v3.51h-1.432v-3.193c-.296.042-.595.07-.895.084v3.109h-1.432V30.5a9.505 9.505 0 0 1-2.251-.526l-.284-.105L2 35l5.172-13.662Zm2.933-3.378-3.191 8.274c.243.038.494.057.75.057 3.94 0 8.59-4.316 9.815-7.89a2.575 2.575 0 0 0-1.6-3.267 4.546 4.546 0 0 0-5.774 2.827Zm19.77-9.33a7.416 7.416 0 0 0-1.5-1.157 8.158 8.158 0 0 1-.321 4.525l-.417 1.138h4.368a7.33 7.33 0 0 0-2.13-4.506Zm-1.136 7.763a4.853 4.853 0 0 0 1.151-1.825h-2.778l-1.177 3.211a4.848 4.848 0 0 0 2.804-1.386ZM11.898 28.63a8.017 8.017 0 0 0 2.767.495c3.34 0 6.365-2.126 7.526-5.291l4.52-12.327c1.282-3.498-.51-7.384-3.995-8.661a6.696 6.696 0 0 0-5.154.217 6.84 6.84 0 0 0-3.553 3.787l-2.751 7.504a5.963 5.963 0 0 1 5.085-.574 4.009 4.009 0 0 1 2.49 5.086c-.697 2.036-2.339 4.27-4.39 5.975-2.236 1.86-4.644 2.883-6.778 2.883-.457 0-.9-.049-1.326-.142l-1.604 4.238 6.26-3.52.903.33Z"/><path stroke="#7E8E8E" stroke-width=".6" d="M17.746 9.625a2.956 2.956 0 0 1 2.953-2.953 2.956 2.956 0 0 1 2.953 2.953 2.956 2.956 0 0 1-2.953 2.953 2.956 2.956 0 0 1-2.953-2.953Zm2.953 1.521c.838 0 1.521-.682 1.521-1.52 0-.84-.682-1.522-1.521-1.522-.84 0-1.522.682-1.522 1.521 0 .839.683 1.521 1.522 1.521Z"/></svg>
