<svg xmlns="http://www.w3.org/2000/svg" width="58" height="58" fill="none"><g filter="url(#a)"><path fill="#fff" fill-opacity=".48" fill-rule="evenodd" d="M12.365 22.697a1.935 1.935 0 0 1 1.57-.803h2.478c.985 0 2.157-.904 2.825-2.562C20.83 15.387 24.556 12 29.225 12c4.669 0 8.396 3.387 9.986 7.332.669 1.658 1.841 2.561 2.827 2.561H44.065a1.935 1.935 0 0 1 1.836 2.547l-1.35 4.047a1.935 1.935 0 0 1-1.835 1.323h-1.214v9.309a1.935 1.935 0 0 1-1.934 1.934c-.916 0-1.387.312-1.655.59-.271.28-.408.608-.458.803v1.62A1.935 1.935 0 0 1 35.52 46H22.928a1.935 1.935 0 0 1-1.934-1.935v-1.798c0-.264-.064-.4-.12-.485-.068-.102-.19-.224-.409-.346-.475-.266-1.136-.383-1.584-.383a1.935 1.935 0 0 1-1.935-1.934V29.81h-1.662a1.935 1.935 0 0 1-1.836-1.323L12.1 24.44a1.935 1.935 0 0 1 .266-1.743Zm27.203 7.113H18.88v9.309c1.35 0 4.047.63 4.047 3.148v1.798h2.249v-1.798h1.799v1.798H28.325v-1.798h1.799v1.798H31.473v-1.798h1.799v1.798h2.248v-1.798c.15-1.05 1.17-3.148 4.048-3.148V29.81Zm3.148-1.935h-1.214v-.135H16.946v.135h-1.662l-.704-2.112-.645-1.935h2.478c2.137 0 3.82-1.79 4.62-3.772 1.378-3.42 4.513-6.121 8.192-6.121 3.679 0 6.813 2.702 8.192 6.12.798 1.98 2.478 3.767 4.609 3.773h2.039l-.645 1.935-.704 2.112Zm-20.619 5.848c0-.218.031-.316.045-.348a.53.53 0 0 1 .11-.032c.165-.035.405-.045.777-.036.108.002.233.007.367.012.272.01.584.022.882.022.298 0 .61-.012.882-.022.134-.005.26-.01.367-.012.372-.01.613 0 .778.036a.53.53 0 0 1 .11.032c.013.032.044.13.044.348a2.18 2.18 0 0 1-4.361 0Zm.031-.34.006-.003-.006.003Zm4.3 0s-.002 0-.005-.003l.005.003Zm-2.15-1.977c-.267 0-.505-.009-.75-.018h-.001a33.172 33.172 0 0 0-.45-.015c-.382-.01-.82-.009-1.224.076-.423.09-.897.289-1.243.741-.337.44-.447.98-.447 1.533a4.115 4.115 0 0 0 8.23 0c0-.553-.11-1.094-.446-1.533-.347-.452-.82-.651-1.244-.74-.404-.086-.842-.087-1.223-.077-.158.004-.305.01-.45.015-.247.01-.485.018-.752.018Zm7.757 2.005c-.014.032-.045.13-.045.347a2.18 2.18 0 1 0 4.361 0c0-.217-.03-.315-.044-.347a.528.528 0 0 0-.11-.033c-.165-.034-.405-.045-.777-.035a31.5 31.5 0 0 0-.367.012c-.272.01-.584.022-.882.022-.298 0-.61-.012-.882-.022a31.5 31.5 0 0 0-.367-.012c-.372-.01-.613 0-.778.035a.532.532 0 0 0-.11.033Zm-.014.008.001-.001.004-.003a.02.02 0 0 1-.005.004Zm4.3 0h-.002l-.004-.004.006.004Zm-2.901-1.995c.246.009.484.018.75.018.268 0 .506-.01.752-.018.145-.006.293-.012.45-.015.382-.01.82-.009 1.224.076.423.09.897.289 1.243.74.337.44.447.981.447 1.533a4.115 4.115 0 0 1-8.23 0c0-.552.11-1.093.446-1.532.347-.452.82-.652 1.244-.74.404-.086.842-.087 1.223-.078.158.004.306.01.45.015ZM26.29 25.86a.967.967 0 0 1 0-1.367l1.565-1.565-1.565-1.564a.967.967 0 1 1 1.368-1.368l1.565 1.564 1.564-1.564a.967.967 0 1 1 1.369 1.367l-1.565 1.565 1.565 1.565a.967.967 0 1 1-1.368 1.368l-1.565-1.565-1.565 1.564a.967.967 0 0 1-1.368 0Z" clip-rule="evenodd"/></g><defs><filter id="a" width="60" height="60" x="-1" y="-1" color-interpolation-filters="sRGB" filterUnits="userSpaceOnUse"><feFlood flood-opacity="0" result="BackgroundImageFix"/><feColorMatrix in="SourceAlpha" result="hardAlpha" values="0 0 0 0 0 0 0 0 0 0 0 0 0 0 0 0 0 0 127 0"/><feOffset/><feGaussianBlur stdDeviation="6"/><feComposite in2="hardAlpha" operator="out"/><feColorMatrix values="0 0 0 0 0.245417 0 0 0 0 0.764192 0 0 0 0 0.775 0 0 0 1 0"/><feBlend in2="BackgroundImageFix" result="effect1_dropShadow_598_15019"/><feBlend in="SourceGraphic" in2="effect1_dropShadow_598_15019" result="shape"/></filter></defs></svg>