<svg xmlns="http://www.w3.org/2000/svg" width="205" height="152" fill="none"><g filter="url(#a)"><path fill="#021414" d="M20.887 33.666c-1.597-2.83.665-14.934 1.996-20.632 2.883 0 9.447.354 12.641 1.769 3.992 1.769 26.614-3.537 33.268-3.537h57.886c1.33 0 7.319-.59 13.307-1.769 5.988-1.179 14.637-1.179 15.968.59 1.331 1.768 12.642.59 14.638 0 1.597-.472 10.424-1.376 14.638-1.769 1.109 5.11 3.327 15.798 3.327 17.685 0 2.357-4.658 19.452-4.658 22.989 0 3.537 4.658 37.726 4.658 39.495 0 1.415-1.331 18.273-1.997 26.526-18.408-.982-56.422-2.947-61.212-2.947-5.988 0-15.303 3.537-16.634 4.716-1.065.943-39.478.392-58.551 0-2.883-.786-8.916-2.476-9.98-2.948-1.331-.589-17.299 7.663-19.295 5.305-1.996-2.357 0-34.778 0-36.547 0-1.768 1.996-14.737 1.996-19.453 0-4.715 0-25.936-1.996-29.473Z"/></g><defs><filter id="a" width="209" height="152" x="0" y="0" color-interpolation-filters="sRGB" filterUnits="userSpaceOnUse"><feFlood flood-opacity="0" result="BackgroundImageFix"/><feColorMatrix in="SourceAlpha" result="hardAlpha" values="0 0 0 0 0 0 0 0 0 0 0 0 0 0 0 0 0 0 127 0"/><feOffset dy="12"/><feGaussianBlur stdDeviation="10"/><feComposite in2="hardAlpha" operator="out"/><feColorMatrix values="0 0 0 0 0 0 0 0 0 0 0 0 0 0 0 0 0 0 0.3 0"/><feBlend in2="BackgroundImageFix" result="effect1_dropShadow_538_213"/><feBlend in="SourceGraphic" in2="effect1_dropShadow_538_213" result="shape"/></filter></defs></svg>