<svg xmlns="http://www.w3.org/2000/svg" width="266" height="89" fill="none"><mask id="a" width="266" height="89" x="0" y="0" maskUnits="userSpaceOnUse" style="mask-type:alpha"><path fill="#D9D9D9" d="M4.919 15.928c.491-2.832 3.894-6.49 5.533-10.619 1.845 6.195 28.897 2.655 32.586 0 2.952-2.123 65.993-2.654 97.144-2.654h36.89c1.845 0 19.06-2.655 22.134-2.655 2.46 0 15.781 1.77 22.135 2.655h24.593L260.69 0c1.025 5.31 5.779 6.902 4.304 13.274-1.476 6.37-5.124 14.453-6.763 17.698 1.844 8.553 5.533 26.192 5.533 28.316 0 2.655-1.844 17.698-3.074 17.698-.984 0-37.505-1.18-55.335 0h-57.18c-3.484 0-10.575.708-11.067 3.54-.492 2.832-60.868 2.95-90.995 2.655.614-1.475 1.967-4.779 2.459-6.195.615-1.77-5.534-1.77-9.223-1.77-3.689 0-17.83 8.85-26.437 12.39-6.887 2.83-11.477-3.54-12.912-7.08.82-2.36 2.705-7.433 3.689-8.85 1.23-1.769.859-18.582 2.703-23.007 1.845-4.424.615-12.388 0-15.928-.614-3.54-2.088-13.273-1.473-16.813Z"/></mask><g mask="url(#a)"><path fill="#021414" d="M1.426 20.353C.196 18.583 5.115 3.54 5.115 1.77H24.79c4.918.59 15.248 1.416 17.215 0C43.972.354 180.958-1.77 249.204-2.654V1.77h14.756c0 4.13-.368 15.044-1.844 25.662-1.476 10.62 3.074 24.482 5.533 30.087-1.475 4.955-1.844 19.173-1.844 25.662l-97.144-1.77h-128.5l1.844-2.654L3.27 81.41c.615-12.978 1.845-39.643 1.845-42.475 0-3.54-2.46-16.813-3.69-18.583Z"/><path fill="#072121" d="M130.34 40.706c69.845 19.821 97.144-27.727 102.063-53.98L-7.383-4.423l-12.297 45.13c20.905-8.26 80.175-19.822 150.02 0Z"/></g></svg>