<svg xmlns="http://www.w3.org/2000/svg" width="187" height="152" fill="none"><g filter="url(#a)"><path fill="#021414" d="M20.772 33.666c-1.39-2.83.578-14.934 1.736-20.632 2.508 0 8.217.354 10.995 1.769 3.473 1.769 23.15-3.537 28.937-3.537h50.351c1.157 0 6.366-.59 11.574-1.769 5.209-1.179 12.733-1.179 13.89.59 1.158 1.768 10.996.59 12.732 0 1.389-.472 9.067-1.376 12.733-1.769.964 5.11 2.893 15.798 2.893 17.685 0 2.357-4.051 19.452-4.051 22.989 0 3.537 4.051 37.726 4.051 39.495 0 1.415-1.157 18.273-1.736 26.526-16.012-.982-49.077-2.947-53.244-2.947-5.209 0-13.31 3.537-14.468 4.716-.926.943-34.339.392-50.93 0-2.507-.786-7.755-2.476-8.68-2.948-1.158-.589-15.047 7.663-16.783 5.305-1.737-2.357 0-34.778 0-36.547 0-1.768 1.736-14.737 1.736-19.453 0-4.715 0-25.936-1.736-29.473Z"/></g><defs><filter id="a" width="187" height="152" x="0" y="0" color-interpolation-filters="sRGB" filterUnits="userSpaceOnUse"><feFlood flood-opacity="0" result="BackgroundImageFix"/><feColorMatrix in="SourceAlpha" result="hardAlpha" values="0 0 0 0 0 0 0 0 0 0 0 0 0 0 0 0 0 0 127 0"/><feOffset dy="12"/><feGaussianBlur stdDeviation="10"/><feComposite in2="hardAlpha" operator="out"/><feColorMatrix values="0 0 0 0 0 0 0 0 0 0 0 0 0 0 0 0 0 0 0.3 0"/><feBlend in2="BackgroundImageFix" result="effect1_dropShadow_538_212"/><feBlend in="SourceGraphic" in2="effect1_dropShadow_538_212" result="shape"/></filter></defs></svg>