<svg xmlns="http://www.w3.org/2000/svg" width="212" height="89" fill="none"><g filter="url(#a)"><path fill="#1C5153" d="M18.552 32.16c-.812-1.105 2.437-10.502 2.437-11.607h12.998c3.249.368 10.072.884 11.372 0 1.3-.885 91.794-2.211 136.878-2.764l4.08.596 5.789.596c0 2.58-.365 10.969-1.34 17.602-.974 6.633 2.031 15.293 3.656 18.793-.975 3.096-1.219 11.977-1.219 16.03l-64.174-1.105H44.141l1.218-1.659-25.588 1.659c.406-8.108 1.218-24.764 1.218-26.533 0-2.21-1.624-10.502-2.437-11.607Z"/><mask id="b" width="176" height="57" x="17" y="18" maskUnits="userSpaceOnUse" style="mask-type:alpha"><path fill="#D9D9D9" d="M20.509 28.575c.324-1.816 2.569-4.16 3.65-6.808 1.217 3.971 19.065 1.702 21.499 0 1.947-1.361 43.537-1.702 64.089-1.702h24.338c1.217 0 12.574-1.702 14.603-1.702 1.622 0 10.411 1.135 14.602 1.702h16.225l9.735-1.702c.677 3.404 3.813 4.425 2.84 8.51-.974 4.084-3.38 9.266-4.462 11.346 1.217 5.484 3.651 16.792 3.651 18.154 0 1.702-1.217 11.346-2.029 11.346-.649 0-24.743-.757-36.506 0H115.02c-2.298 0-6.976.454-7.301 2.269-.324 1.815-40.157 1.891-60.033 1.702.406-.946 1.298-3.064 1.622-3.971.406-1.135-3.65-1.135-6.084-1.135-2.434 0-11.763 5.673-17.442 7.942-4.543 1.816-7.572-2.269-8.518-4.538.54-1.513 1.784-4.765 2.433-5.673.812-1.135 2.029-11.913 3.245-14.75 1.217-2.837.406-7.942 0-10.212-.405-2.269-2.839-8.509-2.433-10.778Z"/></mask><g mask="url(#b)"><path fill="#267375" d="M18.208 31.412c-.81-1.135 2.434-10.779 2.434-11.913h12.98c3.245.378 10.06.907 11.358 0 1.298-.908 91.672-2.27 136.697-2.837V19.5h9.735c0 2.647-.243 9.644-1.217 16.451-.973 6.808 2.028 15.696 3.651 19.289-.974 3.177-1.217 12.291-1.217 16.452l-64.089-1.135H43.763l1.217-1.702-25.555 1.702c.406-8.32 1.217-25.415 1.217-27.23 0-2.27-1.622-10.78-2.434-11.914Z"/><path fill="#3E9599" d="M103.257 44.46c46.079 12.707 64.089-17.777 67.334-34.606L12.396 15.527 4.283 44.459c13.792-5.295 52.894-12.708 98.974 0Z"/></g></g><defs><filter id="a" width="211.736" height="90" x=".264" y="-1" color-interpolation-filters="sRGB" filterUnits="userSpaceOnUse"><feFlood flood-opacity="0" result="BackgroundImageFix"/><feColorMatrix in="SourceAlpha" result="hardAlpha" values="0 0 0 0 0 0 0 0 0 0 0 0 0 0 0 0 0 0 127 0"/><feOffset/><feGaussianBlur stdDeviation="8.5"/><feComposite in2="hardAlpha" operator="out"/><feColorMatrix values="0 0 0 0 0.245417 0 0 0 0 0.764192 0 0 0 0 0.775 0 0 0 0.48 0"/><feBlend in2="BackgroundImageFix" result="effect1_dropShadow_523_630"/><feBlend in="SourceGraphic" in2="effect1_dropShadow_523_630" result="shape"/></filter></defs></svg>