<svg xmlns="http://www.w3.org/2000/svg" width="495" height="193" fill="none"><g filter="url(#a)"><path fill="#fff" fill-rule="evenodd" d="M404.404 78.512c1.77 21.177-17.953 55.368-43.24 57.409-16.689 1.276-33.126-10.972-34.896-33.17-1.77-21.433 18.46-56.643 44.758-57.409 16.183-.765 31.608 11.482 33.378 33.17ZM83.01 118.06V99.69L69.86 86.421l14.92-15.054L99.7 86.422 86.55 99.689v18.371h8.345c27.815-28.066 12.643-71.187-29.839-76.29v76.29H83.01ZM162.41 16l-7.08 7.144h-16.184V41.77h2.782l23.011-23.219L162.41 16Zm71.056 80.883v-1.02c-4.552-1.277-8.345-3.828-10.873-7.145-13.402-17.35 2.023-42.355 25.286-42.355 11.379 0 24.276 6.889 24.276 20.667v53.582c0 2.806 1.264 9.185 7.08 13.268h-23.517c-2.528-2.297-3.54-8.42-3.54-11.227V86.932l-20.735 20.922 13.655 13.778-14.919 15.054-15.678-15.819v-23.73h18.965v-.254Zm201.788-9.186c-8.85-7.91-18.965-18.115-11.379-29.087 7.839-.255 22.252 5.103 31.861 6.634l-20.482 22.453Zm18.459-15.054L479 45.343l-2.529-2.297c-4.298 4.848-12.39 6.889-18.712 5.868-5.31-.765-11.632-2.296-19.976-3.827-10.621-2.041-41.723 31.384-15.172 56.644l-30.092 32.404 2.529 2.296 4.299-4.593c4.299-4.337 11.632-5.868 26.551 0 5.31 2.042 10.873 3.572 16.183 4.083 13.655 1.276 50.321-54.602 11.885-62.002v-1.276h-.253Zm-13.655 14.8-18.965 20.411c7.586 7.144 24.023 13.268 34.137 13.523 9.609-13.012-.758-31.894-15.172-33.935ZM204.639 45.596l-15.172 15.31V46.617c-7.839 1.531-15.678 1.786-23.517 1.531 2.023 1.276 3.793 3.827 3.793 6.124v67.104c0 10.716 12.897 15.82 17.448 12.503l15.172-11.737c-10.367.51-12.643-4.848-12.643-7.655v-50.52h3.54l11.632 11.737 14.919-15.054-15.172-15.054Zm-81.17 26.026c0 30.108-27.816 62.001-49.057 62.001h-8.85v23.219L45.586 177v-43.12h-25.54l8.345-8.42c5.057-5.103 8.85-7.145 16.436-7.145h.759V77.491c0-9.695 2.528-14.543 9.103-21.177l7.333-7.4v-6.889c-16.69-1.02-32.367 5.358-46.022 15.31 6.069-17.861 22-34.19 51.585-34.19 36.919-.511 55.884 21.687 55.884 48.478Zm218.224-23.474h-34.39V32.585l-30.85 31.128h10.874v55.368c0 10.716 17.195 18.881 21.746 15.309l15.931-11.992c-10.368.51-17.954-6.379-17.954-11.227V63.713h18.965l15.678-15.564Zm-206.845 6.124c0-2.297-1.518-5.103-3.793-6.124 7.839.255 15.677-.255 23.516-1.53v79.351c0 2.807 0 5.358 1.517 7.91H133.33c1.518-2.552 1.518-5.103 1.518-7.91V54.273Zm117.33 18.37c0-9.95-8.092-14.543-15.172-14.543-18.965 0-21.494 33.68 5.057 35.21l4.805-4.847c4.551-4.848 5.31-10.461 5.31-15.82Zm129.215 47.969c6.575-37.507 3.035-66.85-32.62-59.96-6.321 37.507-2.781 66.594 32.62 59.96Z" clip-rule="evenodd"/></g><defs><filter id="a" width="495" height="193" x="0" y="0" color-interpolation-filters="sRGB" filterUnits="userSpaceOnUse"><feFlood flood-opacity="0" result="BackgroundImageFix"/><feColorMatrix in="SourceAlpha" result="hardAlpha" values="0 0 0 0 0 0 0 0 0 0 0 0 0 0 0 0 0 0 127 0"/><feOffset/><feGaussianBlur stdDeviation="8"/><feComposite in2="hardAlpha" operator="out"/><feColorMatrix values="0 0 0 0 0.245417 0 0 0 0 0.764192 0 0 0 0 0.775 0 0 0 1 0"/><feBlend in2="BackgroundImageFix" result="effect1_dropShadow_426_15213"/><feBlend in="SourceGraphic" in2="effect1_dropShadow_426_15213" result="shape"/></filter></defs></svg>