<svg xmlns="http://www.w3.org/2000/svg" width="928" height="478" fill="none"><path fill="#001F1D" fill-rule="evenodd" d="M928 0H0v478h928V0ZM108.217 70.596a6.999 6.999 0 0 0-3.807 6.08L101 235l2.38 6.664a4 4 0 0 1 .179.688l1.363 8.177c.052.313.074.631.066.948L103.5 310.5h1.261a10 10 0 0 1 7.74 3.668l.93 1.137c.379.462.724.953.969 1.498 1.474 3.272 2 8.15 2.087 9.051.009.099.016.195.021.294l1.435 26.314c.038.69.004 1.382-.101 2.065l-6.379 41.462a5.141 5.141 0 0 1-3.326 4.052 11.993 11.993 0 0 1-5.426.649L101 400.5l1 28 5.535 2.129a5.991 5.991 0 0 1 1.75 1.044L112 434v8h56v-1.5l37 .5v-1l36.5.5H260l6.22-10.219A2.67 2.67 0 0 1 268.5 429l1 2 .106.211A8.478 8.478 0 0 1 270.5 435l.389 3.888A2.026 2.026 0 0 0 272 440.5l5.5-9.5 4-7.5a1.207 1.207 0 0 1 1.575.459L284 425.5l6 9h13c0 .546.453.984.999.964L331 434.5a.586.586 0 0 0 .414 1H360l.5.5 26.5-.5.5.5H400l11.5-8.5 4.509-2.46a7.403 7.403 0 0 1 2.098-.761l1.813-.363A3.964 3.964 0 0 1 423.5 425l.5 6.5-.5 5H439l27 1h28l57.5.5-.5 1 29-.5.5.5H608l54.5.5 14.25-9.336a1 1 0 0 1 .548-.164h3.448a1 1 0 0 1 .961.725L683.5 437H705l65-4.5h1.293c.453 0 .887.18 1.207.5l.346 1.038c.102.306.154.626.154.949V437l36 1.5 15-5.5-1-11.5 1-18.5-4.426-16.378a13.977 13.977 0 0 1-.469-4.318l.353-7.414a7.005 7.005 0 0 1 .306-1.741L824 359.5V355l2-4-1-12 2-23.5-2-21.5 2-1.5-1-1.5v-11.5l-1-42.5-9.231-9.671a1 1 0 0 1 .536-1.673L825 224l-.5-4-11.019-.408c-.9-.033-1.301-1.146-.629-1.745L825 207v-25l-7.5-57-.693-.248a10 10 0 0 1-6.626-8.941l-.581-12.216a2 2 0 0 1 1.998-2.095H814l1-41.5-.956-10.512a4.957 4.957 0 0 0-.182-.958L811.5 40.5l-3-4.5L676 39l-3.5 5.5L667 39l-59.5 2-2.071 13.908c-.435 2.917-4.377 3.522-5.666.868L595.5 47l-7.5 1v22.84c0 4.663-6.622 5.556-7.857 1.06L575.5 55h-7l-4-10.5-171 3.5-8 6-1.5-6-6.5 1.5L370 57l-9.5-9-46-3.5-4.739 6.926a2 2 0 0 1-3.366-.1L305 49l-2.5-4.5-3-.5 1 3h-7v-.5L271 47l.5-1-23.5.5.5-1h-11l-.703 1.055a1.001 1.001 0 0 1-.832.445h-.557a3.001 3.001 0 0 1-1.664-.504l-.616-.41a2.062 2.062 0 0 1-.242-.19L227 40.5l-2.5-.5H216v-.5h-5V39h-9l-6.5-.5h-7l-.5-1-21.529 3.425c-.312.05-.614.148-.896.293l-57.358 29.378Z" clip-rule="evenodd"/></svg>