<svg xmlns="http://www.w3.org/2000/svg" width="282" height="76" fill="none"><mask id="a" width="282" height="76" x="0" y="0" maskUnits="userSpaceOnUse" style="mask-type:alpha"><path fill="#D9D9D9" d="M5.22 13.568c.521-2.412 4.131-5.528 5.87-9.045 1.958 5.276 30.663 2.26 34.578 0 3.131-1.81 70.024-2.262 103.078-2.262h39.144c1.957 0 20.224-2.261 23.486-2.261 2.61 0 16.745 1.508 23.487 2.261h26.095L276.616 0c1.087 4.523 6.132 5.88 4.567 11.306-1.566 5.428-5.437 12.312-7.177 15.076 1.958 7.286 5.872 22.311 5.872 24.12 0 2.261-1.957 15.075-3.262 15.075-1.044 0-39.796-1.005-58.716 0h-60.673c-3.696 0-11.221.603-11.743 3.015-.522 2.412-64.587 2.513-96.554 2.262.652-1.257 2.087-4.07 2.61-5.277.652-1.507-5.872-1.507-9.787-1.507-3.914 0-18.92 7.538-28.053 10.553-7.307 2.412-12.178-3.016-13.7-6.03.87-2.01 2.87-6.332 3.914-7.538 1.305-1.508 3.262-15.83 5.22-19.598 1.957-3.769.652-10.553 0-13.568-.653-3.015-4.567-11.306-3.915-14.321Z"/></mask><g mask="url(#a)"><path fill="#021414" d="M1.512 17.336C.207 15.83 5.427 3.015 5.427 1.507h20.876c5.22.503 16.18 1.206 18.267 0C46.658.301 192.012-1.508 264.428-2.262v3.77h15.657c0 3.517-.391 12.813-1.957 21.858S281.39 44.22 284 48.994c-1.566 4.221-1.957 16.332-1.957 21.86l-103.079-1.508H42.614l1.956-2.261-41.1 2.26c.652-11.054 1.957-33.768 1.957-36.18 0-3.015-2.61-14.321-3.915-15.829Z"/><path fill="#072121" d="M138.304 34.673c74.112 16.884 103.078-23.618 108.298-45.98L-7.833-3.769-20.88 34.673c22.182-7.035 85.073-16.884 159.185 0Z"/></g></svg>