<svg xmlns="http://www.w3.org/2000/svg" width="57" height="52" fill="none"><g filter="url(#a)"><path fill="#fff" fill-opacity=".48" d="M18.884 12h-.008a.77.77 0 0 0-.59.287l-6.12 7.65a.768.768 0 0 0 .005.96l.002.004v.001l15.298 18.815.006.007c.15.18.37.276.587.276.229 0 .45-.105.594-.282l15.297-18.816.003-.004c.185-.227.173-.49.171-.482a.777.777 0 0 0-.167-.478l-6.12-7.65a.774.774 0 0 0-.598-.288h-18.36Zm1.075 1.53h6.454l-4.58 5.407-1.874-5.407Zm9.756 0h6.454l-1.875 5.407-4.58-5.407Zm-1.651.419 4.83 5.701h-9.66l4.83-5.701Zm-9.449.376 1.847 5.325h-6.107l4.26-5.325Zm18.898 0 4.26 5.325h-6.108l1.848-5.325ZM14.37 21.18h6.62l4.926 14.203L14.371 21.18Zm8.24 0h10.904L28.063 36.9 22.61 21.18Zm12.524 0h6.621L30.21 35.383l4.926-14.203Z"/></g><defs><filter id="a" width="60" height="60" x="-2" y="-4" color-interpolation-filters="sRGB" filterUnits="userSpaceOnUse"><feFlood flood-opacity="0" result="BackgroundImageFix"/><feColorMatrix in="SourceAlpha" result="hardAlpha" values="0 0 0 0 0 0 0 0 0 0 0 0 0 0 0 0 0 0 127 0"/><feOffset/><feGaussianBlur stdDeviation="6"/><feComposite in2="hardAlpha" operator="out"/><feColorMatrix values="0 0 0 0 0.245417 0 0 0 0 0.764192 0 0 0 0 0.775 0 0 0 1 0"/><feBlend in2="BackgroundImageFix" result="effect1_dropShadow_598_15018"/><feBlend in="SourceGraphic" in2="effect1_dropShadow_598_15018" result="shape"/></filter></defs></svg>