<svg xmlns="http://www.w3.org/2000/svg" width="60" height="61" fill="none"><g fill="#fff" fill-opacity=".48" filter="url(#a)"><path d="M48 26.132c-.042.216-.086.431-.125.647a7.463 7.463 0 0 1-5.938 5.971c-.103.02-.203.047-.323.074-.005.107-.014.21-.014.313-.001.925-.02 1.852.006 2.776.018.669-.463 1.2-1.205 1.198-6.934-.012-13.867-.012-20.802 0-.733.002-1.225-.524-1.205-1.197.027-.901.007-1.804.007-2.706v-.369c-.107-.03-.204-.063-.303-.082-3.119-.608-5.446-2.977-6.004-6.114-.03-.17-.063-.341-.094-.511v-.844c.238-.636.702-.868 1.37-.846.96.03 1.92.004 2.881.009.552.003 1.03-.187 1.453-.53.565-.457.861-1.06.973-1.771.224-1.418.631-2.782 1.27-4.07 1.374-2.776 3.494-4.714 6.457-5.684.442-.145.9-.264 1.36-.333.574-.086 1.053.28 1.16.83.023.113.02.233.02.35.003.574-.008 1.148.005 1.721.013.615.49 1.064 1.087 1.047.562-.015 1.005-.46 1.016-1.047.012-.632-.005-1.266.006-1.898.012-.703.595-1.178 1.278-1.043 3.024.6 5.398 2.168 7.061 4.777 1.108 1.737 1.701 3.66 1.995 5.684.131.908.641 1.52 1.498 1.82.28.098.594.135.894.14 1.03.017 2.062.004 3.092.008.51.002.867.24 1.056.719.017.042.045.079.068.118v.844-.001Zm-21.16-11.65c-.107.032-.164.045-.218.066a8.481 8.481 0 0 0-3.53 2.53c-1.1 1.325-1.77 2.857-2.157 4.522-.13.558-.204 1.131-.367 1.679-.564 1.898-2.374 3.324-4.375 3.282-.528-.011-1.055-.001-1.582-.001h-.362c.013.106.015.174.031.24.56 2.29 2.683 3.971 5.056 3.973 7.113.007 14.225.003 21.337 0 .233 0 .469-.021.699-.06 2.18-.373 3.59-1.642 4.297-3.717.044-.128.056-.265.092-.436h-.38c-.61-.001-1.22.019-1.828-.012a4.42 4.42 0 0 1-1.138-.183c-1.81-.587-2.86-1.827-3.133-3.718-.198-1.376-.569-2.701-1.207-3.942-1.023-1.99-2.56-3.41-4.668-4.193-.069-.025-.144-.034-.25-.059.063.966-.124 1.831-.75 2.555-.632.73-1.436 1.11-2.407 1.114a3.046 3.046 0 0 1-2.113-.812c-.828-.746-1.113-1.704-1.047-2.826v-.002Zm12.634 18.43c-.613-.064-18.692-.04-18.948.023v2.041h18.948v-2.064Zm-5.89 15.089c-.313-.082-.633-.146-.94-.25-1.9-.647-3.094-1.947-3.571-3.9a1.835 1.835 0 0 0-.029-.102c-.007-.022-.017-.044-.042-.109-.364-.065-.751-.137-1.14-.203l-4.05-.672-4.845-.809c-.589-.098-1.178-.187-1.766-.29-.6-.106-1.002-.663-.895-1.224a1.07 1.07 0 0 1 1.252-.858c2.146.358 4.291.72 6.437 1.079 1.58.264 3.161.526 4.743.787.054.01.112.002.205.002 0-.24.012-.47-.002-.701-.046-.732.538-1.196 1.171-1.192 2.729.017 5.459.017 8.187 0 .666-.005 1.218.463 1.195 1.21-.025.805-.006 1.613-.006 2.442.076.024.148.058.224.07 1.015.17 2.03.337 3.047.504.399.066.697.27.857.646.326.763-.3 1.556-1.142 1.448-.313-.04-.624-.102-.935-.154l-2.596-.436c-.033-.005-.068.003-.082.004-.26.337-.488.68-.76.98a5.108 5.108 0 0 1-3.125 1.667c-.067.01-.132.04-.197.06h-1.196v.001Zm-2.528-6.318c.008.59-.045 1.15.067 1.706.292 1.451 1.636 2.522 3.147 2.501 1.485-.02 2.805-1.12 3.039-2.575.074-.46.052-.933.069-1.4.002-.076-.02-.154-.031-.233h-6.291Z"/><path d="M31.755 21.814c.342-.255.657-.497.979-.729.329-.236.686-.287 1.062-.12.715.313.845 1.256.24 1.771-.224.19-.466.354-.7.531-.102.078-.201.157-.297.23.212 1.132.117 1.188-.005 1.91.316.239.646.479.965.733.338.27.491.627.399 1.057-.16.745-.98 1.07-1.625.646-.254-.167-.49-.362-.735-.542-.092-.069-.189-.133-.289-.203-1.158.682-2.312.694-3.501-.002-.08.055-.175.118-.265.185-.255.187-.5.389-.763.564-.488.324-1.108.215-1.44-.239a1.04 1.04 0 0 1 .193-1.447c.317-.258.652-.495.997-.756-.162-.618-.199-1.24.013-1.888l-.634-.485c-.12-.092-.247-.177-.365-.274-.455-.373-.544-.989-.213-1.445.343-.472.964-.58 1.464-.242.272.183.527.39.79.585.066.048.136.09.226.15.535-.32 1.115-.52 1.75-.518.624.002 1.196.189 1.755.528h-.001ZM30 25.501c.575 0 1.048-.47 1.051-1.043a1.073 1.073 0 0 0-1.038-1.063 1.073 1.073 0 0 0-1.069 1.067 1.06 1.06 0 0 0 1.055 1.04Z"/></g><defs><filter id="a" width="60" height="60.002" x="0" y="0" color-interpolation-filters="sRGB" filterUnits="userSpaceOnUse"><feFlood flood-opacity="0" result="BackgroundImageFix"/><feColorMatrix in="SourceAlpha" result="hardAlpha" values="0 0 0 0 0 0 0 0 0 0 0 0 0 0 0 0 0 0 127 0"/><feOffset/><feGaussianBlur stdDeviation="6"/><feComposite in2="hardAlpha" operator="out"/><feColorMatrix values="0 0 0 0 0.245417 0 0 0 0 0.764192 0 0 0 0 0.775 0 0 0 1 0"/><feBlend in2="BackgroundImageFix" result="effect1_dropShadow_530_350"/><feBlend in="SourceGraphic" in2="effect1_dropShadow_530_350" result="shape"/></filter></defs></svg>