<svg xmlns="http://www.w3.org/2000/svg" width="56" height="48" fill="none"><g filter="url(#a)"><path fill="#fff" fill-opacity=".48" fill-rule="evenodd" d="M12 13.2c0-.47.38-.85.85-.85h30.3c.47 0 .85.38.85.85v21.6c0 .47-.38.85-.85.85h-30.3a.85.85 0 0 1-.85-.85V13.2Zm1.7.85h2.152v15.027a6.599 6.599 0 0 0-2.152-.752V14.05Zm5.544 19.9c-.347-1.614-1.033-2.822-1.876-3.7h21.116c-.843.878-1.529 2.086-1.875 3.7H19.244Zm-3.71-3.059c.798.59 1.561 1.54 1.962 3.059H13.7v-3.895a4.91 4.91 0 0 1 1.833.836Zm22.822 3.059H42.3v-3.926a4.905 4.905 0 0 0-1.981.867c-.799.59-1.562 1.54-1.963 3.059Zm3.944-5.648V14.05h-2.148v14.946a6.573 6.573 0 0 1 2.148-.694ZM32.85 14.05h5.602v2.1H32.85v-2.1Zm0 3.8V21c0 .47-.38.85-.85.85h-8a.85.85 0 0 1-.85-.85v-3.15h-5.598v10.7h20.9v-10.7H32.85Zm-15.298-1.7h5.598v-2.1h-5.598v2.1Zm13.598-2.1h-6.3v6.1h6.3v-6.1ZM28 15.15c.47 0 .85.38.85.85v2a.85.85 0 0 1-1.7 0v-2c0-.47.38-.85.85-.85Z" clip-rule="evenodd"/></g><defs><filter id="a" width="60" height="60" x="-2" y="-6" color-interpolation-filters="sRGB" filterUnits="userSpaceOnUse"><feFlood flood-opacity="0" result="BackgroundImageFix"/><feColorMatrix in="SourceAlpha" result="hardAlpha" values="0 0 0 0 0 0 0 0 0 0 0 0 0 0 0 0 0 0 127 0"/><feOffset/><feGaussianBlur stdDeviation="6"/><feComposite in2="hardAlpha" operator="out"/><feColorMatrix values="0 0 0 0 0.245417 0 0 0 0 0.764192 0 0 0 0 0.775 0 0 0 1 0"/><feBlend in2="BackgroundImageFix" result="effect1_dropShadow_598_15017"/><feBlend in="SourceGraphic" in2="effect1_dropShadow_598_15017" result="shape"/></filter></defs></svg>