<svg xmlns="http://www.w3.org/2000/svg" width="60" height="57" fill="none"><g fill="#fff" fill-opacity=".48" filter="url(#a)"><path d="M12 27.15v-3.684c.02-.055.05-.108.06-.165.281-1.748 1.505-3.08 3.196-3.47.203-.046.41-.076.624-.116.046-.228.086-.438.133-.647.801-3.613 4.052-6.334 7.664-6.355 4.216-.025 8.432-.012 12.648.003.51.001 1.03.068 1.53.182 3.11.705 5.45 3.117 6.157 6.313l.117.516c.213.032.402.043.582.09 1.684.43 2.751 1.508 3.189 3.237l.1.413v3.683c-.021.053-.053.105-.062.16-.292 1.764-1.577 3.119-3.291 3.466l-.438.09c-.016.088-.033.158-.042.23-.207 1.446-.933 2.539-2.127 3.322-.682.446-1.341.926-2.025 1.37-1.013.656-1.74 1.55-2.217 2.676a116.96 116.96 0 0 1-1.445 3.285c-.735 1.601-1.981 2.424-3.704 2.441-1.77.018-3.54.005-5.308.002-.2 0-.4-.003-.596-.033-1.482-.232-2.534-1.053-3.152-2.456-.468-1.062-.946-2.12-1.39-3.192-.49-1.18-1.252-2.101-2.306-2.784-.713-.461-1.41-.95-2.11-1.432-.99-.68-1.619-1.618-1.886-2.81-.046-.207-.077-.42-.115-.638-.088-.012-.157-.019-.225-.029-2.04-.315-3.297-1.969-3.504-3.543-.006-.043-.037-.084-.057-.125Zm23.867 8.93v-3.164c0-1.481.517-2.721 1.626-3.683.622-.54.912-1.223.906-2.06-.011-1.457 0-2.913-.007-4.37 0-.238-.012-.484-.067-.715-.259-1.093-1.16-1.83-2.267-1.86-.503-.014-1.008-.003-1.512-.003-3.456 0-6.913 0-10.37-.002-.366 0-.723.038-1.068.174-.744.291-1.517 1.084-1.507 2.345.01 1.468.014 2.936-.002 4.404-.01.866.295 1.557.933 2.122 1.065.944 1.581 2.149 1.572 3.595-.006.95-.001 1.901 0 2.852 0 .116.01.233.017.365h11.745Zm2.161-1.508c.15-.11.294-.226.445-.33.838-.574 1.677-1.145 2.516-1.716.741-.505 1.108-1.21 1.107-2.127-.004-3.141.001-6.282-.006-9.424 0-.347-.028-.7-.085-1.04-.486-2.907-2.948-5.049-5.832-5.057-4.113-.01-8.226-.005-12.339 0-.338 0-.681.028-1.013.09-2.865.534-4.906 3.039-4.913 6.035-.008 3.13-.003 6.259 0 9.388 0 .168.005.338.033.503.118.719.503 1.253 1.09 1.65.86.583 1.715 1.173 2.572 1.762.12.083.236.172.393.287 0-.632-.002-1.208 0-1.785a2.443 2.443 0 0 0-.87-1.93c-1.102-.965-1.64-2.191-1.632-3.678.007-1.48 0-2.961.003-4.441.001-.276.005-.557.05-.828.374-2.249 2.208-3.866 4.422-3.872 4.02-.01 8.038-.008 12.057.005.405.001.822.064 1.212.174 1.858.524 3.174 2.216 3.252 4.194.038.961.015 1.925.014 2.888 0 .77.01 1.541-.018 2.31a4.29 4.29 0 0 1-.978 2.574c-.216.267-.47.504-.718.74-.478.453-.77 1-.793 1.672-.02.624-.012 1.25-.015 1.876 0 .02.021.04.046.081Zm-13.604 3.71c.054.138.09.238.133.335.31.712.628 1.421.93 2.137.369.87 1.008 1.279 1.928 1.274 1.71-.01 3.419-.012 5.128 0 .938.006 1.579-.417 1.951-1.298.303-.716.623-1.424.933-2.136.042-.095.078-.193.126-.312h-11.13Zm19.819-16.32c-.067.374-.053 6.427.016 6.677.852-.13 1.639-.973 1.632-2.056-.005-.866.004-1.732-.005-2.598a2.394 2.394 0 0 0-.075-.57c-.193-.764-.856-1.371-1.57-1.453h.002Zm-28.465-.008c-.064.004-.111-.002-.154.009-.831.217-1.48.994-1.505 1.873a50.68 50.68 0 0 0 .002 2.923c.028.945.759 1.743 1.658 1.87v-6.675h-.001Z"/><path d="M23.602 24.645c0-.327-.005-.653 0-.98.01-.628.446-1.084 1.038-1.09.61-.007 1.062.45 1.068 1.096.006.688.01 1.376-.003 2.063-.008.447-.232.778-.644.957-.404.174-.781.096-1.109-.19a1.003 1.003 0 0 1-.35-.772c-.004-.362-.001-.723-.002-1.084h.002ZM34.289 24.645c0-.327-.004-.653 0-.98.01-.628.447-1.084 1.038-1.09.61-.007 1.062.45 1.069 1.096.006.688.01 1.376-.003 2.063-.009.447-.232.778-.645.957-.404.174-.78.096-1.108-.19a1.003 1.003 0 0 1-.351-.772c-.004-.362 0-.723-.001-1.084h.001ZM26.838 32.537c0-.139-.008-.28.001-.418a1.067 1.067 0 0 1 1.038-.99 1.06 1.06 0 0 1 1.063.998 7.26 7.26 0 0 1 0 .803 1.044 1.044 0 0 1-1.054 1 1.05 1.05 0 0 1-1.049-1.009c-.007-.127 0-.256 0-.384h.001ZM33.188 32.548c-.028.218-.027.443-.088.651-.147.502-.618.79-1.134.726-.48-.06-.875-.47-.906-.967a6.785 6.785 0 0 1 0-.838 1.062 1.062 0 0 1 1.035-.991 1.064 1.064 0 0 1 1.065.997c.01.139.001.279.001.418l.026.003Z"/></g><defs><filter id="a" width="60" height="60" x="0" y="-2" color-interpolation-filters="sRGB" filterUnits="userSpaceOnUse"><feFlood flood-opacity="0" result="BackgroundImageFix"/><feColorMatrix in="SourceAlpha" result="hardAlpha" values="0 0 0 0 0 0 0 0 0 0 0 0 0 0 0 0 0 0 127 0"/><feOffset/><feGaussianBlur stdDeviation="6"/><feComposite in2="hardAlpha" operator="out"/><feColorMatrix values="0 0 0 0 0.245417 0 0 0 0 0.764192 0 0 0 0 0.775 0 0 0 1 0"/><feBlend in2="BackgroundImageFix" result="effect1_dropShadow_785_944"/><feBlend in="SourceGraphic" in2="effect1_dropShadow_785_944" result="shape"/></filter></defs></svg>