<svg xmlns="http://www.w3.org/2000/svg" width="1200" height="300" fill="none"><path fill="#021414" d="M22.68 3.83c-5.96 2.394-3.126 22.022-14.628 22.98C2.302 64.15 0 149.365 0 149.365l2.04 53.139c4.732 1.729 6.617 14.252 3.845 21.495-4.658 12.167 2.167 13.5-1.084 32l-2.76 17C.89 279.702.2 289.635 6.64 289.635s13.42 6.064 16.104 9.096c86.652.958 237.717 2.298 237.717 0s13.036-7.021 19.554-9.096v9.096l21.855-12.447 12.653 8.617H582.58c7.668-1.915 25.766-6.319 36.808-8.617 11.042-2.298 9.969 4.787 8.052 8.617l224.953 2.873 20.705-6.224h11.503c2.76 0 5.751 2.234 6.901 3.351l208.428-3.351 4.6 3.351 57.51 2.873 32.21-6.224-4.6-18.671 5.08-19.149c3.45-6.862-.48-20.969-.48-22.501 0-1.915 5.75-20.106 5.75-21.064 0-.957-3.45-13.883-3.45-15.798v-44.523l-8.52-9.096 6.22-1.915 2.3-3.829c-5.75.319-8.03.765-14.47 0-6.44-.766 3.35-6.703 14.47-9.575-.38-4.628-.92-14.458 0-16.756s-2.63-30-7.24-43.565c-1.53.958-6.21 1.149-12.65-5.745s.39-10.851 4.6-11.968c5.52-13.788 6.37-37.342 1.77-47.395L982.592 1.915v4.309l-9.202-4.31L866.417 3.83c-1.917 3.032-6.441 9.67-9.202 11.968s-6.968-5.51-9.269-8.702h-17.253c.383 5.266.92 14.085 0 15.235-1.151 1.436-6.902 1.436-10.353 1.436-2.76 0-9.585-7.894-12.652-12.841l-13.737 2-8.052-7.66-194.073 3.83-11.502 1.915-2.301-1.915-12.653-.957-12.652 7.66-12.653-7.66c-27.99-.958-149.214-2.681-150.134-1.915-.92.766-8.052 3.51-11.502 4.787l-9.202-4.787-4.601-.958V8.14c-4.985-.32-15.644-.958-18.405-.958-2.76 0-39.831-.638-68.97-.957-1.151.638-3.911 1.915-5.752 1.915-1.84 0-8.435-2.873-11.502-4.31l-69.015-2.393c-9.586.32-162.342 0-168.302 2.394Z"/></svg>