<svg xmlns="http://www.w3.org/2000/svg" width="360" height="89" fill="none"><g filter="url(#a)"><path fill="#1C5153" d="M15.165 32.16c-1.514-1.105 4.541-10.502 4.541-11.607H43.93c6.055.368 18.772.884 21.194 0 2.422-.885 171.07-2.211 255.091-2.764l7.603.596 10.789.596c0 2.58-.68 10.969-2.497 17.602-1.816 6.633 3.785 15.293 6.813 18.793-1.817 3.096-2.271 11.977-2.271 16.03l-119.597-1.105H62.852l2.271-1.659-47.687 1.659c.757-8.108 2.27-24.764 2.27-26.533 0-2.21-3.027-10.502-4.541-11.607Z"/><mask id="b" width="327" height="57" x="12" y="18" maskUnits="userSpaceOnUse" style="mask-type:alpha"><path fill="#D9D9D9" d="M18.811 28.575c.605-1.816 4.788-4.16 6.804-6.808 2.268 3.971 35.53 1.702 40.065 0 3.628-1.361 81.138-1.702 119.439-1.702h45.357c2.268 0 23.434-1.702 27.214-1.702 3.024 0 19.403 1.135 27.214 1.702h30.238l18.143-1.702c1.259 3.404 7.105 4.425 5.291 8.51-1.814 4.084-6.299 9.266-8.315 11.346 2.268 5.484 6.803 16.792 6.803 18.154 0 1.702-2.268 11.346-3.779 11.346-1.21 0-46.113-.757-68.036 0h-70.302c-4.284 0-13.003.454-13.607 2.269-.605 1.815-74.839 1.891-111.88 1.702.756-.946 2.419-3.064 3.023-3.971.756-1.135-6.803-1.135-11.339-1.135-4.535 0-21.922 5.673-32.505 7.942-8.467 1.816-14.111-2.269-15.875-4.538 1.008-1.513 3.326-4.765 4.535-5.673 1.512-1.135 3.78-11.913 6.048-14.75 2.268-2.837.756-7.942 0-10.212-.756-2.269-5.292-8.509-4.536-10.778Z"/></mask><g mask="url(#b)"><path fill="#267375" d="M14.524 31.412c-1.512-1.135 4.536-10.779 4.536-11.913h24.19c6.047.378 18.747.907 21.166 0 2.42-.908 170.844-2.27 254.754-2.837V19.5h18.143c0 2.647-.454 9.644-2.268 16.451-1.814 6.808 3.78 15.696 6.803 19.289-1.814 3.177-2.267 12.291-2.267 16.452l-119.44-1.135H62.148l2.268-1.702-47.624 1.702c.756-8.32 2.268-25.415 2.268-27.23 0-2.27-3.024-10.78-4.536-11.914Z"/><path fill="#3E9599" d="M173.023 44.46C258.898 57.166 292.462 26.682 298.51 9.853L3.691 15.527l-15.119 28.932c25.702-5.295 98.576-12.708 184.451 0Z"/></g></g><defs><filter id="a" width="365.236" height="90" x="-4.236" y="-1" color-interpolation-filters="sRGB" filterUnits="userSpaceOnUse"><feFlood flood-opacity="0" result="BackgroundImageFix"/><feColorMatrix in="SourceAlpha" result="hardAlpha" values="0 0 0 0 0 0 0 0 0 0 0 0 0 0 0 0 0 0 127 0"/><feOffset/><feGaussianBlur stdDeviation="8.5"/><feComposite in2="hardAlpha" operator="out"/><feColorMatrix values="0 0 0 0 0.245417 0 0 0 0 0.764192 0 0 0 0 0.775 0 0 0 0.48 0"/><feBlend in2="BackgroundImageFix" result="effect1_dropShadow_530_400"/><feBlend in="SourceGraphic" in2="effect1_dropShadow_530_400" result="shape"/></filter></defs></svg>