<svg xmlns="http://www.w3.org/2000/svg" width="378" height="656" fill="none"><mask id="a" width="378" height="656" x="0" y="0" maskUnits="userSpaceOnUse" style="mask-type:alpha"><path fill="#F3E8CF" d="M371.779 20.633c-2.332-8.825-35.749-6.432-37.303-13.786-60.618-3.677-115.272-9.854-128.95-5.148-13.678 4.705-63.208 1.96-86.263 0 2.072.98 3.108.445-9.326 8.681-12.435 8.237-29.425 1.472-56.367-2.94L50.462 1.7C39.582.963 17.822.522 17.822 4.64c0 4.119-9.844 8.58-14.766 10.296l-.06 2.144c-1.55 55.19-3.623 129.054.06 129.054 3.73 0 11.398 8.335 14.766 12.502H3.056l20.206 13.973-13.989 8.089v166.256c3.109 4.903 10.258 16.473 13.989 23.533 3.73 7.06-7.772 6.374-13.989 5.148L4.61 461.473l10.103 13.237v7.354c0 1.765-3.627 3.677-5.44 4.412l5.44 105.544-5.44 2.942-4.663 36.77 10.103 20.591 10.309-2.942 21.086-3.677c11.139 2.207 24.039 6.619 26.526 6.619 3.108 0 32.64 3.677 34.194 3.677 1.554 0 22.537-2.206 25.646-2.206h52.275l14.766-10.296 3.108 8.825 6.217 1.471c-.518-3.677-1.243-12.061 0-16.179 1.244-4.118 10.88 9.07 15.543 16.179 7.513-.245 33.47-.588 37.2 0 3.731.588 18.702-5.148 40.721-8.09-1.554-.98-1.865-3.971 9.326-8.089s17.615.245 19.428 2.942c22.382 3.53 30.618-1.471 46.938-4.413l-3.109-91.43h-6.994l6.994-5.883-3.108-68.392c-4.922-1.226-15.698-4.119-19.429-5.883-3.73-1.765 5.699-5.148 10.88-6.619v-11.031c-8.548.245-16.112.588-17.977 0-2.332-.735-2.332-4.413-2.332-6.619 0-1.765 6.062-6.128 14.092-8.089v-8.089l12.434-5.148-6.217-102.54-3.108-7.354 3.108-1.47 1.555-8.09-12.435-8.089 12.435-8.09c1.554-17.894 4.352-53.831 3.108-54.419-1.243-.588-5.699-5.148-7.771-7.354l7.771-5.883 1.554-2.942h-4.662c.518-3.187 1.554-10.001 1.554-11.766 0-1.765 1.036-25.466 1.554-44.096-1.036-.735-3.108-2.5-3.108-3.677s4.662-5.393 6.994-7.354l3.886-44.124c-.518-6.128-2.021-74.02-3.886-81.08Z"/></mask><g mask="url(#a)"><path fill="#051D1D" d="M7.66 445.444c-9.301 1.162-7.99 24.658-15.728 25.354-5.998 42.194-16.886 129.037-12.457 138.852 4.43 9.815-.2 44.305-3.07 60.324 1.099-1.397 1.34-2.111 9.502 7.022 8.162 9.133-.932 48.627-6.5 67.233l-6.872 1.829c-1.156 7.57-2.391 22.763 1.911 22.982 4.302.219 8.613 7.34 10.23 10.873l2.24.156c57.6 4.017 134.686 9.393 134.817 6.818.133-2.609 9.113-7.528 13.586-9.661l-.526 10.325 15.316-13.387 7.953 10.212 135.609 6.9c5.232-1.913 17.573-6.298 25.081-8.531 7.508-2.233 6.382 5.773 4.88 10.056l70.47 6.855 14.187-6.362 7.683.391c1.844.094 3.712 2.732 4.416 4.039l110.45 1.806 2.88 3.96 38.246 5.216 21.87-5.971-1.995-21.351-2.735-21.934c2.701-7.672 8.126-23.452 8.214-25.191.111-2.174 5.003-22.63 5.058-23.717.055-1.087-1.503-15.877-1.392-18.051l2.572-50.542-10.23-10.873 9.329-1.705 1.758-4.269c-3.86.167-12.644.228-16.902-.86-4.257-1.089 9.863-7.126 17.455-10.009.011-5.267.22-16.444.968-19.021.747-2.578-3.645-34.331-5.935-49.885-1.079 1.035-4.214 1.093-8.118-6.952-3.904-8.044.882-12.305 3.764-13.43 4.484-15.464.62-42.468-1.872-54.037l-95.624-2.686-.249 4.891-5.897-5.204-71.557-1.461c-1.455 3.377-4.86 10.759-6.837 13.274-1.977 2.514-5.175-4.259-6.527-7.961l-11.524-.586c-.048 5.991-.314 18.291-.995 19.564-.851 1.592-4.693 1.396-6.997 1.279-1.844-.094-5.831-11.557-7.594-17.277l-8.45-.43-4.936-8.969-50.231 1.803-7.793 1.783-1.426-2.252-8.395-1.517-8.894 8.265-8.008-9.125c-18.638-2.038-56.08-5.905-56.739-5.067-.659.839-5.58 3.712-7.959 5.044l-5.869-5.747-3.018-1.243-.166 3.26c-3.31-.531-10.393-1.618-12.236-1.712-1.844-.094-26.566-2.078-46.01-3.431-.805.686-2.723 2.041-3.952 1.979-1.229-.063-5.468-3.548-7.433-5.282l-45.956-5.063c-6.421.036-77.399-2.522-84.84-1.593Z"/><path fill="#0A2B2B" fill-rule="evenodd" d="M257.535 467.618c9.028 1.059 16.566 1.944 17.083 3.571 1.036 3.257 10.78 7.891 15.522 9.801l9.446-8.531 43.444 2.211 28.005 10.436c2.909 5.155 14.412 11.949 18.366 12.951 4.943 1.253 13.991-9.301 13.991-9.301s6.723 2.344 10.782 4.553c2.458-2.378 9.146-8.546 16.243-14.193 5.093-4.053 19.953-8.6 32.16-11.808l29.426.601 5.897 5.204.249-4.891 54.131 1.52c6.454 1.846 13.004 3.993 17.964 5.618 3.041.997 5.484 1.798 6.941 2.213 5.132 1.462 9.31 3.978 10.757 5.053 1.348 9.581 3.684 29.926 2.241 34.659-.346 1.135-1.13 2.561-2.039 4.213-3.828 6.957-9.859 17.917 5.407 27.999 2.719 12.154 8.107 37.461 7.903 41.456-.254 4.993-4.985 19.271-6.483 19.195-1.498-.076-13.864 6.804-14.144 12.297-.223 4.394 5.73 5.465 8.735 5.451l-3.2 3.842c4.858 2.918 14.129 9.631 12.348 13.145-1.733 3.42-1.722 20.285-1.716 29.234.001 2.543.003 4.447-.037 5.221-.071 1.393 1.878 5.273 4.195 9.846l-.168 3.307c-.065 1.273.443 6.876.864 11.518.297 3.282.551 6.083.528 6.533-.023.451-.876 4.224-1.875 8.645-.93 4.115-1.986 8.792-2.619 11.871a5706.88 5706.88 0 0 1-1.997 3.797c-6.097 11.581-12.193 23.161-12.608 26.394-.664 5.173.44 20.883 1.074 28.091-3.498 3.159-10.895 9.458-12.493 9.377-1.997-.102-32.407-2.65-32.754-5.672a73.01 73.01 0 0 0-.744-5.044c-34.566.411-104.222 1.706-106.321 3.602-2.624 2.369-9.386-2.48-9.284-4.478.081-1.598-10.619-1.208-15.98-.813l-18.857 6.55-57.425-2.922c1.36-3.769 2.192-11.603-5.357-12.788-9.437-1.482-26.644 2.148-31.418 7.413-1.821 2.008-4.936 4.261-8.162 6.298l-123.579-6.288c-.981-1.717-1.942-3.611-2.861-5.421-1.076-2.12-2.093-4.124-3.016-5.597-2.593-4.137-9.736-2.164-12.983-.66l-8.735-5.451-16.436 8.175c-13.822 2.504-35.742 6.342-55.53 9.524-23.866-1.475-51.39-3.394-75.499-5.076h-.001l-2.24-.156c-1.617-3.533-5.928-10.654-10.23-10.873-4.302-.219-3.067-15.412-1.912-22.982l6.873-1.829c5.568-18.606 14.662-58.1 6.5-67.233-7.996-8.948-8.39-8.444-9.435-7.106a6.887 6.887 0 0 1-.066.084c1.858-10.378 4.456-28.508 4.85-42.659l29.448-182.032c10.408-.244 40.678.632 61.445 1.233 10.381.3 18.387.532 20.352.521l45.956 5.063c1.965 1.734 6.204 5.219 7.433 5.282 1.229.062 3.147-1.293 3.952-1.979 11.836.824 25.628 1.881 35.025 2.604l30.827 10.184 15.785-5.205c6.478 2.334 17.015 3.571 26.056 4.632Z" clip-rule="evenodd"/><path fill="#051D1D" fill-rule="evenodd" d="M122.855 7.705c-6.616 3.477-14.144 7.432-17.636 8.648-6.512 2.267-39.072 2.267-45.082-1.814-3.225-2.189-7.315-3.726-10.413-4.89-2.677-1.006-4.615-1.734-4.615-2.365 0-1.088-13.691-.453-20.537 0-5.677 3.023-17.231 10.158-18.033 14.51-.248 1.35-.158 6.18-.034 12.8.355 19.04.987 52.888-5.36 61.315C1.469 71.66 2.29 42.404 3 17.079l.06-2.143C7.985 13.22 17.828 8.759 17.828 4.64c0-4.118 21.76-3.677 32.64-2.941l3.11 5.741c6.373 1.044 12.19 2.22 17.522 3.297 17.203 3.476 29.351 5.931 38.844-.357 11.596-7.68 11.476-7.733 9.727-8.5a14.839 14.839 0 0 1-.402-.181c3.82.325 8.367.671 13.357 1.001-2.251 1.054-5.85 2.946-9.77 5.005Zm140.723-5.841c-28.535-1.969-50.139-2.886-58.046-.165-11.412 3.926-47.78 2.665-72.907 1.001 1.033-.483 1.782-.79 2.147-.857 25.046-3.023 75.437-8.797 76.639-7.708.663.6 24.469 3.98 52.167 7.729ZM372.874 31.48c-2.556-4.926-4.765-9.125-5.179-9.686-1.001-1.36-11.521-6.349-19.034-6.802-3.126-.189-6.685.25-9.776.632-4.339.535-7.756.957-7.756-.632 0-2.177-1.67-3.93-2.505-4.534-17.318-2.24-42.474-5.54-65.046-8.595 7.377.508 15.218 1.088 23.405 1.692 14.919 1.102 30.988 2.29 47.499 3.29.743 3.518 8.777 4.806 17.211 6.158 9.199 1.474 18.876 3.025 20.092 7.629.38 1.437.745 5.399 1.089 10.848Zm1.192 88.451 1.605-18.219c-.159-1.875-.41-9.53-.735-19.456-.521-15.91-1.232-37.656-2.062-50.776 1.371 2.643 2.842 5.495 4.19 8.107 2.222 4.308 4.108 7.966 4.657 8.96 1.503 2.72-3.506 54.413-4.508 58.493l-.703 2.883c-.602 2.473-1.48 6.077-2.444 10.008Zm-21.331 171.239-4.074-4.113 13.024-8.616 4.508-39.903-3.006-10.882-6.512-8.616 6.512-5.441-3.005-4.534 6.011-48.972-6.011-10.882c2.337-1.21 7.213-4.172 8.014-6.349.616-1.672 3.504-13.284 5.87-22.931l-2.281 25.905c-2.332 1.961-6.995 6.177-6.995 7.354 0 1.177 2.073 2.942 3.109 3.677-.328 11.795-.864 25.623-1.213 34.63-.202 5.218-.341 8.818-.341 9.466 0 1.765-1.036 8.579-1.555 11.766h4.663l-1.554 2.942-7.771 5.883c2.072 2.206 6.528 6.766 7.771 7.354 1.243.588-1.554 36.525-3.109 54.419l-12.055 7.843Zm1.373 1.387-1.752-1.14.379-.247 1.373 1.387Zm9.838 35.576a1534.57 1534.57 0 0 0-6.269-22.485l4.008-5.442-7.577-7.649 10.682 6.949-1.554 8.09-3.108 1.47 3.108 7.354.71 11.713Zm1.86 30.665-1.86-30.665c2.084 7.738 3.749 14.336 3.749 15.604 0 1.59-.917 8.364-1.889 15.061Zm-11.068 74.034.936-16.091 8.515-2.721v-44.437c.437-2.824 1.036-6.79 1.617-10.785l3.647 60.162-12.434 5.148v8.089c-.78.19-1.542.404-2.281.635Zm-3.259 14.389c-3.06.036-5.313-.03-6.22-.316-2.332-.735-2.332-4.413-2.332-6.619 0-1.593 4.941-5.305 11.811-7.454l-.066 1.139c-4.341 1.814-12.723 5.986-11.521 8.162.888 1.609 4.93 3.646 8.328 5.088Zm21.478 49c-1.744-9.556-3.45-18.856-4.761-25.974-7.012-2.116-21.238-6.893-22.04-9.069-1.002-2.721 8.015-8.615 9.518-8.615 1.202 0-.167-2.721-1.002-4.081a66.115 66.115 0 0 1-3.193-1.261c2.319-.028 5.1-.113 8.109-.206 1.185-.037 2.406-.074 3.648-.11v11.031c-5.181 1.471-14.61 4.854-10.88 6.619 3.73 1.764 14.507 4.657 19.429 5.883l1.172 25.783Zm2.4 62.137-.464-13.645h-6.994l6.994-5.883-1.936-42.609c4.032 22.098 8.263 45.563 8.263 46.576 0 .75-.855 2.661-1.93 5.061-1.415 3.163-3.211 7.175-3.933 10.5ZM11.828 593.583c.416 2.555.722 4.575.722 5.442 0 2.176-2.004 20.556-3.006 29.474l9.517 11.336 26.048-4.988 44.58 9.951c27.718.907 83.553 2.177 85.156 0 .649-.881 3.291-1.739 6.65-2.829 4.935-1.601 11.416-3.705 15.39-7.122l7.013 4.988 4.007-11.336c7.68 4.081 23.342 12.877 24.545 15.417 1.174 2.48 25.908 1.083 38.81.355 3.606-.204 6.288-.355 7.273-.355 3.607 0 12.857-2.116 17.031-3.174-.334-1.965-.501-6.167 1.503-7.256 2.004-1.088 18.2-4.383 26.047-5.894 2.004.302 6.713 1.904 9.518 5.894 12.355.454 37.368.091 38.57-4.987.844-3.567 1.688-23.162 2.444-40.696.589-13.676 1.124-26.098 1.563-28.681.043-.25.092-.504.148-.763l2.645 77.785c-4.104.74-7.697 1.61-11.132 2.442-10.225 2.475-19.052 4.613-35.806 1.971-1.813-2.697-8.237-7.06-19.428-2.942-11.191 4.118-10.88 7.109-9.326 8.089-12.45 1.664-22.647 4.22-29.833 6.022-5.523 1.385-9.267 2.323-10.888 2.068-3.73-.588-29.687-.245-37.2 0-4.663-7.109-14.299-20.297-15.543-16.179-1.243 4.118-.518 12.502 0 16.179l-6.217-1.471-3.109-8.825-14.765 10.296H132.48c-1.821 0-9.776.757-16.365 1.384-4.66.443-8.637.822-9.281.822-.644 0-6.088-.631-12.466-1.37-9.02-1.045-19.908-2.307-21.728-2.307-1.16 0-4.58-.958-9.03-2.205-5.099-1.429-11.549-3.236-17.496-4.414l-21.086 3.677-10.31 2.942-10.102-20.591 4.663-36.77 2.549-1.379Zm1.264-33.116 1.627 31.553-2.891 1.563-.317-1.931c-.87-5.264-1.967-11.916-1.967-15.753 0-2.788 1.16-6.889 2.376-11.188.398-1.406.801-2.834 1.172-4.244Zm-6.65-132.625C7.26 441 8.28 450.414 9.545 453.017c3.025 6.224 5.598 10.261 7.302 12.936 1.4 2.198 2.215 3.477 2.215 4.295 0 .219.008.564.017 1.005.068 3.199.242 11.402-1.52 12.598-2.003 1.36-5.008 9.069-5.008 11.789 0 2.721 1.001 47.158 2.003 53.96.418 2.836-.384 6.777-1.46 10.867l-3.814-73.991c1.813-.735 5.44-2.647 5.44-4.412v-7.354L4.616 461.473l1.827-33.631ZM9.28 295.477v51.477c3.108 4.903 10.258 16.473 13.988 23.533 3.73 7.06-7.771 6.374-13.988 5.148l-2.836 52.207c-2.027-32.687-2.79-88.481-2.91-120.38 0-1.529 1.187-5.924 5.746-11.985Zm0 0V180.698l13.988-8.089-20.205-13.973h14.765c-3.367-4.167-11.035-12.502-14.765-12.502-.942 0-1.507-4.825-1.8-12.929 1.152 2.883 2.199 4.812 2.773 5.124 2.504 1.36 13.023 10.429 14.526 14.51 1.202 3.265.5 6.802 0 8.162l10.018 9.069-13.024 11.789c-3.005 2.721-5.009 32.195-5.009 34.008 0 .227.11 1.481.288 3.519 1.246 14.265 5.848 66.935-.288 74.473-.449.552-.87 1.091-1.267 1.618ZM1.26 133.205c-3.88-9.701-8.957-30.197-1.234-36.14a6.005 6.005 0 0 0 1.118-1.156c-.202 15.09-.212 28.24.116 37.296Z" clip-rule="evenodd"/></g></svg>