<svg xmlns="http://www.w3.org/2000/svg" width="1020" height="280" fill="none"><path fill="#021414" d="M19.278 3.575c-5.066 2.234-2.657 20.553-12.434 21.447C1.956 59.874 0 139.408 0 139.408l1.734 49.597c4.022 1.613 5.625 13.302 3.268 20.062-3.959 11.355 1.842 12.6-.921 29.866L1.734 254.8c-.978 6.255-1.564 15.526 3.911 15.526s11.407 5.66 13.688 8.49c73.654.893 202.059 2.145 202.059 0s11.081-6.554 16.622-8.49v8.49l18.576-11.618 10.755 8.043h227.848c6.518-1.787 21.901-5.898 31.287-8.043 9.386-2.144 8.473 4.469 6.844 8.043l191.21 2.681 17.599-5.809h9.777c2.347 0 4.889 2.086 5.867 3.128l177.162-3.128 3.911 3.128 48.885 2.681 27.375-5.809-3.91-17.426 4.32-17.872c2.94-6.405-.41-19.571-.41-21.001 0-1.787 4.89-18.766 4.89-19.66 0-.894-2.93-12.958-2.93-14.745v-41.554l-7.24-8.49 5.28-1.787 1.96-3.575c-4.89.298-6.83.715-12.3 0-5.478-.715 2.85-6.255 12.3-8.936-.33-4.319-.79-13.494 0-15.639.78-2.145-2.24-28-6.15-40.66-1.31.893-5.28 1.072-10.76-5.362-5.473-6.434.33-10.128 3.91-11.17 4.7-12.87 5.42-34.853 1.51-44.236L835.203 1.787V5.81l-7.821-4.022-90.928 1.788c-1.629 2.83-5.475 9.025-7.821 11.17-2.347 2.145-5.923-5.143-7.879-8.122h-14.665c.326 4.915.782 13.146 0 14.219-.978 1.34-5.867 1.34-8.8 1.34-2.346 0-8.147-7.367-10.755-11.984l-11.676 1.866-6.843-7.149L503.052 8.49l-9.777 1.787-1.955-1.787-10.755-.894-10.755 7.15-10.755-7.15c-23.791-.894-126.831-2.502-127.614-1.787-.782.715-6.844 3.276-9.777 4.468l-7.821-4.468-3.911-.894v2.68c-4.237-.297-13.297-.893-15.644-.893-2.346 0-33.856-.595-58.625-.893-.978.595-3.324 1.787-4.889 1.787-1.564 0-7.169-2.681-9.777-4.021L162.335 1.34c-8.148.298-137.991 0-143.057 2.235Z"/></svg>