<svg xmlns="http://www.w3.org/2000/svg" width="28" height="28" fill="none"><path fill="#FE1F20" fill-rule="evenodd" d="m13.837 28 4.783-11.908c.256-.647.427-1.337.427-2.114 0-2.89-2.349-5.263-5.21-5.263-2.861 0-5.21 2.373-5.21 5.263 0 .734.17 1.467.427 2.114L13.837 28Zm0-16.524a2.537 2.537 0 0 1 2.52 2.545c0 1.381-1.11 2.546-2.52 2.546a2.537 2.537 0 0 1-2.52-2.546c.043-1.423 1.153-2.545 2.52-2.545Zm.128 7.809a5.415 5.415 0 0 0 3.075-1.079l-.598 1.467-2.477 6.17v-6.558Zm-7.901 2.589 1.88-4.487a6.748 6.748 0 0 0 2.562 2.588l-4.442 1.899Zm15.588 0-4.441-1.899a6.747 6.747 0 0 0 2.562-2.588l1.88 4.487Zm0-15.704-4.441 1.898a6.747 6.747 0 0 1 2.562 2.589l1.88-4.487Zm-15.588 0 1.88 4.487a6.748 6.748 0 0 1 2.562-2.589L6.064 6.17ZM0 14.02l7.858-3.235a6.85 6.85 0 0 0-.812 3.236c0 1.165.3 2.243.812 3.236L0 14.02Zm2.178.087 4.399 1.812a6.631 6.631 0 0 1-.257-1.812H2.178ZM13.836 0l-3.16 7.938c.94-.517 2.05-.82 3.203-.82s2.22.303 3.202.82L13.836 0Zm.128 2.2 1.794 4.444a6.44 6.44 0 0 0-1.794-.259V2.2Zm13.751 11.82-7.858 3.237a6.85 6.85 0 0 0 .812-3.236c0-1.165-.3-2.244-.812-3.236l7.858 3.236Zm-2.178.087h-4.185c0 .604-.085 1.208-.256 1.812l4.441-1.812Z" clip-rule="evenodd"/><path fill="#fff" fill-rule="evenodd" d="M10.59 2.503c-1.964.56-3.715 1.64-5.124 3.02a11.87 11.87 0 0 0-2.99 5.177l-.64-.259a12.69 12.69 0 0 1 3.16-5.393 12.508 12.508 0 0 1 5.338-3.193l.256.648ZM25.239 10.7c-.555-1.985-1.623-3.754-2.99-5.177a11.696 11.696 0 0 0-5.124-3.02l.256-.648a12.508 12.508 0 0 1 5.338 3.193 12.69 12.69 0 0 1 3.16 5.393l-.64.259Zm-8.114 14.798c1.964-.56 3.715-1.64 5.125-3.02a11.87 11.87 0 0 0 2.989-5.177l.64.259a12.69 12.69 0 0 1-3.16 5.393 12.509 12.509 0 0 1-5.338 3.192l-.256-.647ZM2.477 17.3c.555 1.985 1.622 3.754 2.989 5.178a11.696 11.696 0 0 0 5.124 3.02l-.256.647a12.508 12.508 0 0 1-5.338-3.192 12.69 12.69 0 0 1-3.16-5.393l.64-.26Z" clip-rule="evenodd"/></svg>