<svg xmlns="http://www.w3.org/2000/svg" width="938" height="618" fill="none"><g filter="url(#a)"><ellipse cx="469" cy="309" fill="#3FC3C6" fill-opacity=".6" rx="239" ry="79"/></g><g filter="url(#b)"><path fill="#fff" fill-rule="evenodd" d="M617.404 292.512c1.77 21.177-17.953 55.368-43.24 57.409-16.689 1.276-33.126-10.972-34.896-33.17-1.77-21.432 18.46-56.643 44.758-57.409 16.183-.765 31.608 11.482 33.378 33.17ZM296.01 332.06v-18.371l-13.149-13.267 14.919-15.054 14.919 15.054-13.149 13.267v18.371h8.345c27.815-28.066 12.643-71.187-29.839-76.29v76.29h17.954ZM375.41 230l-7.08 7.144h-16.184v18.626h2.782l23.011-23.218L375.41 230Zm71.056 80.883v-1.021c-4.552-1.276-8.345-3.827-10.873-7.144-13.402-17.35 2.023-42.355 25.286-42.355 11.379 0 24.276 6.889 24.276 20.667v53.582c0 2.806 1.264 9.185 7.08 13.268h-23.517c-2.528-2.297-3.54-8.42-3.54-11.227v-35.721l-20.735 20.922 13.655 13.778-14.919 15.054-15.678-15.819v-23.729h18.965v-.255Zm201.788-9.186c-8.85-7.909-18.965-18.115-11.379-29.087 7.839-.255 22.252 5.103 31.861 6.634l-20.482 22.453Zm18.459-15.054L692 259.342l-2.529-2.296c-4.298 4.848-12.39 6.889-18.712 5.868-5.31-.765-11.632-2.296-19.976-3.827-10.621-2.041-41.723 31.384-15.172 56.644l-30.092 32.404 2.529 2.296 4.299-4.593c4.299-4.337 11.632-5.868 26.551 0 5.31 2.042 10.873 3.572 16.183 4.083 13.655 1.276 50.321-54.602 11.885-62.002v-1.276h-.253Zm-13.655 14.799-18.965 20.412c7.586 7.144 24.023 13.268 34.137 13.523 9.609-13.012-.758-31.894-15.172-33.935Zm-235.419-41.845-15.172 15.31v-14.289c-7.839 1.531-15.678 1.786-23.517 1.531 2.023 1.276 3.793 3.827 3.793 6.124v67.104c0 10.716 12.897 15.82 17.448 12.503l15.172-11.737c-10.367.51-12.643-4.848-12.643-7.655v-50.52h3.54l11.632 11.737 14.919-15.054-15.172-15.054Zm-81.17 26.026c0 30.108-27.816 62.001-49.057 62.001h-8.85v23.219L258.585 391v-43.12h-25.539l8.344-8.42c5.058-5.103 8.851-7.145 16.437-7.145h.758v-40.824c0-9.695 2.529-14.543 9.104-21.177l7.333-7.4v-6.889c-16.689-1.02-32.367 5.359-46.022 15.309 6.069-17.86 21.999-34.19 51.585-34.19 36.919-.51 55.884 21.688 55.884 48.479Zm218.224-23.474h-34.39v-15.564l-30.85 31.128h10.874v55.368c0 10.716 17.195 18.881 21.746 15.309l15.931-11.992c-10.368.51-17.954-6.379-17.954-11.227v-47.458h18.965l15.678-15.564Zm-206.845 6.124c0-2.297-1.518-5.103-3.793-6.124 7.839.255 15.677-.255 23.516-1.531v79.352c0 2.807 0 5.358 1.517 7.91H346.33c1.518-2.552 1.518-5.103 1.518-7.91v-71.697Zm117.33 18.37c0-9.95-8.092-14.543-15.172-14.543-18.965 0-21.494 33.68 5.057 35.211l4.805-4.848c4.551-4.848 5.31-10.461 5.31-15.82Zm129.215 47.969c6.575-37.507 3.035-66.85-32.62-59.961-6.321 37.507-2.781 66.595 32.62 59.961Z" clip-rule="evenodd"/></g><defs><filter id="a" width="938" height="618" x="0" y="0" color-interpolation-filters="sRGB" filterUnits="userSpaceOnUse"><feFlood flood-opacity="0" result="BackgroundImageFix"/><feBlend in="SourceGraphic" in2="BackgroundImageFix" result="shape"/><feGaussianBlur result="effect1_foregroundBlur_426_15211" stdDeviation="115"/></filter><filter id="b" width="495" height="193" x="213" y="214" color-interpolation-filters="sRGB" filterUnits="userSpaceOnUse"><feFlood flood-opacity="0" result="BackgroundImageFix"/><feColorMatrix in="SourceAlpha" result="hardAlpha" values="0 0 0 0 0 0 0 0 0 0 0 0 0 0 0 0 0 0 127 0"/><feOffset/><feGaussianBlur stdDeviation="8"/><feComposite in2="hardAlpha" operator="out"/><feColorMatrix values="0 0 0 0 0.245417 0 0 0 0 0.764192 0 0 0 0 0.775 0 0 0 1 0"/><feBlend in2="BackgroundImageFix" result="effect1_dropShadow_426_15211"/><feBlend in="SourceGraphic" in2="effect1_dropShadow_426_15211" result="shape"/></filter></defs></svg>