<svg xmlns="http://www.w3.org/2000/svg" width="299" height="71" fill="none"><g filter="url(#a)"><path fill="#78281E" d="M18.326 26.543c-1.218-.79 3.656-7.502 3.656-8.291h19.496c4.874.263 15.11.631 17.059 0 1.95-.632 137.69-1.58 205.316-1.975l6.12.426 8.684.425c0 1.843-.547 7.835-2.009 12.573-1.463 4.738 3.046 10.924 5.483 13.424-1.462 2.211-1.828 8.555-1.828 11.45l-96.261-.79H56.709l1.828-1.184-38.383 1.185c.61-5.791 1.828-17.689 1.828-18.952 0-1.58-2.437-7.502-3.656-8.291Z"/><mask id="b" width="263" height="42" x="16" y="16" maskUnits="userSpaceOnUse" style="mask-type:alpha"><path fill="#D9D9D9" d="M21.262 23.981c.487-1.296 3.854-2.971 5.476-4.862 1.825 2.836 28.597 1.215 32.248 0 2.92-.973 65.306-1.216 96.134-1.216h36.506c1.826 0 18.862-1.215 21.904-1.215 2.434 0 15.617.81 21.904 1.215h24.338l14.603-1.215c1.014 2.43 5.719 3.16 4.259 6.078-1.46 2.917-5.07 6.618-6.693 8.104 1.825 3.917 5.476 11.994 5.476 12.967 0 1.216-1.825 8.104-3.042 8.104-.974 0-37.115-.54-54.76 0H163.03c-3.448 0-10.466.325-10.952 1.621-.487 1.297-60.236 1.351-90.05 1.216.608-.675 1.947-2.188 2.434-2.837.608-.81-5.476-.81-9.127-.81-3.65 0-17.645 4.052-26.163 5.673-6.815 1.297-11.358-1.62-12.777-3.242.81-1.08 2.677-3.404 3.65-4.052 1.217-.81 3.042-8.51 4.868-10.536 1.825-2.026.608-5.673 0-7.293-.609-1.621-4.26-6.079-3.651-7.7Z"/></mask><g mask="url(#b)"><path fill="#9D3325" d="M17.81 26.008c-1.216-.81 3.651-7.699 3.651-8.51h19.47c4.868.27 15.09.65 17.037 0 1.947-.648 137.508-1.62 205.045-2.025v2.026h14.603c0 1.89-.365 6.888-1.825 11.751-1.46 4.863 3.042 11.211 5.476 13.777-1.46 2.27-1.826 8.78-1.826 11.752l-96.134-.81H56.143l1.825-1.216-38.332 1.215c.608-5.943 1.825-18.153 1.825-19.45 0-1.621-2.434-7.7-3.65-8.51Z"/><path fill="#C85849" d="M145.384 35.328c69.119 9.076 96.134-12.697 101.002-24.719L9.093 14.662l-12.17 20.666c20.688-3.782 79.342-9.077 148.461 0Z"/></g></g><defs><filter id="a" width="298.605" height="72" x=".395" y="-1" color-interpolation-filters="sRGB" filterUnits="userSpaceOnUse"><feFlood flood-opacity="0" result="BackgroundImageFix"/><feColorMatrix in="SourceAlpha" result="hardAlpha" values="0 0 0 0 0 0 0 0 0 0 0 0 0 0 0 0 0 0 127 0"/><feOffset/><feGaussianBlur stdDeviation="8"/><feComposite in2="hardAlpha" operator="out"/><feColorMatrix values="0 0 0 0 0.784314 0 0 0 0 0.345098 0 0 0 0 0.286275 0 0 0 0.86 0"/><feBlend in2="BackgroundImageFix" result="effect1_dropShadow_795_9290"/><feBlend in="SourceGraphic" in2="effect1_dropShadow_795_9290" result="shape"/></filter></defs></svg>