<svg xmlns="http://www.w3.org/2000/svg" width="329" height="272" fill="none"><path fill="#021414" d="M321.417 267.514c4.426-1.682.461-25.792 4.149-26.913 1.844-43.735 4.942-83.167 2.582-93.036-2.36-9.868.576-59.248 0-62.237-.575-2.99-1.542-2.35-2.142-6.729-.6-4.38-.738-21.23 1.474-40.667l.668-2.243c.369-7.85.59-23.55-1.475-23.55-2.066 0-4.303-7.102-5.164-10.653l-1.077-.043c-27.679-1.118-64.722-2.614-64.722.043 0 2.691-4.18 2.419-6.27 4.848V1.486l-7.007 7.944-4.057-4.288-83.382-1.658c-2.459 2.243-8.262 2.426-11.802 5.117-3.538 2.69-3.197.202-2.584-4.277l.002-.01-43.05-2.536-6.639 6.46c-.86 0-2.803-.83-3.688-.83-.885 0-1.844-1.787-2.213-3.095l-49.079.663-5.329-2.321-18.44-.048-10.328 7.29 1.475 7.437 1.844 15.213c-1.106 8.037-3.319 17.344-3.319 19.138C1.844 53.928 0 75.235 0 76.356c0 1.122 1.106 16.26 1.106 18.503v37.716l1.846 10.653-1.108 2.243-.738 4.486c1.845-.374 2.731-.898 4.797 0 2.065.897-1.231 7.849-4.797 11.214.123 5.42.295 24.148 0 26.839-.295 2.691-.183 13.493 1.293 29.379.492-1.121 1.438-1.345 3.504 6.729 2.065 8.074-1.782 12.709-3.134 14.017-1.77 16.148.737 22.09 2.213 33.865l50.83-2.243v-5.046l2.951 5.046 34.3 1.904c.615-1.893 2.066-3.863 2.951-6.554.885-2.692 2.582.794 3.32 4.532h5.532c-.123-6.167-.295-5.819 0-7.165.369-1.682 2.213-1.682 3.319-1.682.885 0 3.074 2.714 4.057 6.02h4.057l2.582 3.167 51.426-4.486 3.688-2.243.738 2.243 4.057 1.121 4.057-7.312 4.057 7.312c8.974 1.122 26.998 3.14 27.293 2.243.295-.897 2.581-3.282 3.688-4.778l2.95 4.778 1.476 1.122v-3.365c1.598.374 5.016 1.122 5.901 1.122.885 0 12.771-3.399 22.115-3.025.369-.748 1.254-1.414 1.844-1.414.59 0 2.705 2.535 3.688 4.217l22.129 2.804c3.074-.374 39.888-1.458 43.429-2.804Z"/><path fill="#0A2B2B" d="M318.908 265.105c4.35-1.652 1.894-25.178 5.519-26.279 1.813-42.934 3.417-81.788 1.097-91.476-2.319-9.688 1.125-56.93.559-59.865-.565-2.935-1.898-3.993-2.487-8.293-.59-4.3-.247-19.893 1.928-38.975l1.112-5.805c.363-7.706-.532-20.01-2.562-20.01s-4.229-6.972-5.075-10.459c-27.31-1.1-62.841-2.642-62.841 0s-4.855 2.376-6.909 4.761l-1.659-1.659-5.528 4.147-4.776-3.66-81.957-1.627c-2.417 2.201-8.12 2.38-11.6 5.023-3.48 2.642-6.194 1.008-5.59-3.395L98.877 4.23l-6.525 6.342c-.846 0-2.755-.814-3.626-.814-.87 0-5.226-1.105-5.588-2.389H38.31l-5.238-2.278-18.126-.047L4.797 12.2l1.45 7.302 1.812 14.934c-1.087 7.89-3.262 17.027-3.262 18.788 0 2.202-1.813 23.119-1.813 24.22 0 1.1 1.088 15.963 1.088 18.165 0 1.76-1.088 19.911-1.088 36.241l3.04 9.951-1.227 2.073-.725 2.903c1.812-.367 4.164 1.658 4.44 3.317.276 1.658-.936 10.795-4.44 14.097.12 5.321-.798 20.578-1.088 23.22-.29 2.642-.244 26.536 1.813 27.366 2.057.829 1.685 1.61 3.715 9.536 2.03 7.927-1.987 12.813-3.317 14.098-1.74 15.853.209 18.709 1.659 30.269l47.815-1.373.83-5.261 3.593 5.261 33.307 1.173c.604-1.858 2.03-3.792 2.9-6.434.87-2.643 4.596 1.475 5.321 5.145l3.247-.999c-.121-6.055.553-7.081 1.658-7.687 1.106-.606 2.708 0 3.796 0 .87 0 4.082 2.665 5.049 5.911h2.926l2.537 3.108 50.091-4.404 4.082-2.201 1.723 2.201 2.989 1.101 5.302-7.98 2.674 7.98c8.821 1.101 26.536 3.083 26.826 2.202.29-.881 2.538-3.222 3.625-4.69l3.635 4.044.716-1.556c1.57.367 4.93 1.101 5.8 1.101.87 0 12.553-3.336 21.737-2.969.362-.734 1.233-1.388 1.813-1.388.58 0 4.622 1.605 5.589 3.256l19.787 3.636c3.021-.367 39.206-1.431 42.686-2.752Z"/></svg>