<svg xmlns="http://www.w3.org/2000/svg" width="88" height="88" fill="none"><g filter="url(#a)"><path fill="#1C5153" d="M75.39 44.152c1.486 2.987-2.475 20.403-11.885 25.877-6.933 0-10.994 5.97-19.81 5.97-10.02 0-21.295-5.97-26.247-14.43C13.713 55.191 12 51.673 12 44.152c0-4.996 0-8.459 4.457-12.937 5.144-10.607 14.706-18.91 27.238-18.91 2.736 0 6.877 2.829 9.41 3.484 8.419 0 18.82 12.44 18.82 12.44s1.98 12.936 3.466 15.923Z"/><mask id="b" width="64" height="64" x="12" y="12" maskUnits="userSpaceOnUse" style="mask-type:alpha"><path fill="#D9D9D9" d="M75.695 44.152c1.493 2.987-2.488 20.403-11.943 25.877-6.967 0-11.046 5.97-19.905 5.97-10.068 0-21.397-5.97-26.373-14.43C13.722 55.191 12 51.673 12 44.152c0-4.996 0-8.459 4.479-12.937 5.168-10.607 14.776-18.91 27.368-18.91 2.75 0 6.91 2.829 9.455 3.484 8.46 0 18.91 12.44 18.91 12.44s1.99 12.936 3.483 15.923Z"/></mask><g mask="url(#b)"><path fill="#267375" d="M70.22 27.733c-1.593-3.185-2.986-6.635-2.986-9.455 0-.995-.624-2.941-1.493-1.493-1.493 2.488-7.465 1.493-8.957 1.493-1.493 0-9.455-2.986-10.45-2.986-.995 0-5.972.995-7.465 1.493-1.492.498-8.957-2.488-10.45-2.488-1.492 0-8.459 10.947-12.938 10.947-4.478 0-5.473 6.967-5.473 10.45 0 2.787 1.659 6.801 2.488 8.46.663 1.493 2.19 4.677 2.986 5.473.995.996 2.488 3.981 4.478 8.958 1.99 4.976 14.43 12.439 14.43 12.439h7.963c1.493 0 11.942-.994 11.942-.994s5.717-2.036 8.703-3.529c2.986-1.493 6.226-7.419 8.216-10.902 1.99-3.483 2.489-8.957 2.489-9.455 0-.497-1.493-14.43-3.484-18.411Z"/></g><path fill="#fff" fill-opacity=".92" d="M37 37.275c0-1.707 1.826-2.792 3.325-1.977l12.362 6.726c1.566.853 1.566 3.101 0 3.953l-12.362 6.726c-1.499.816-3.325-.27-3.325-1.976V37.275Z"/></g><defs><filter id="a" width="88" height="88" x="0" y="0" color-interpolation-filters="sRGB" filterUnits="userSpaceOnUse"><feFlood flood-opacity="0" result="BackgroundImageFix"/><feColorMatrix in="SourceAlpha" result="hardAlpha" values="0 0 0 0 0 0 0 0 0 0 0 0 0 0 0 0 0 0 127 0"/><feOffset/><feGaussianBlur stdDeviation="6"/><feComposite in2="hardAlpha" operator="out"/><feColorMatrix values="0 0 0 0 0.245417 0 0 0 0 0.764192 0 0 0 0 0.775 0 0 0 1 0"/><feBlend in2="BackgroundImageFix" result="effect1_dropShadow_892_1117"/><feBlend in="SourceGraphic" in2="effect1_dropShadow_892_1117" result="shape"/></filter></defs></svg>