<svg xmlns="http://www.w3.org/2000/svg" width="36" height="36" fill="none"><path fill="#fff" fill-opacity=".48" d="M29.828 18.035c0 4.46-.001 8.921.002 13.383 0 .55-.069 1.086-.313 1.582-.619 1.254-1.639 1.918-3.044 1.995-.119.006-.238.003-.357.003-5.182 0-10.365-.002-15.547.002-1.068 0-1.975-.355-2.695-1.146-.555-.61-.835-1.334-.87-2.154-.005-.117-.003-.236-.003-.354 0-8.898.001-17.796-.001-26.694 0-.403.026-.8.138-1.19a3.434 3.434 0 0 1 3.183-2.457c.083-.002.167-.003.25-.003 5.23 0 10.46.003 15.69-.002 1.069 0 1.975.353 2.694 1.145.554.61.834 1.334.869 2.153.006.142.004.283.004.425v13.312Zm-20.544-.07v13.349c0 .117-.005.236.004.354a1.146 1.146 0 0 0 1.058 1.06c.095.006.19.003.286.003h15.585c.095 0 .19.003.285-.005.552-.05.993-.492 1.039-1.042.009-.117.004-.236.004-.354V4.666c0-.107.003-.213-.003-.319a1.143 1.143 0 0 0-1.078-1.077c-.095-.006-.19-.003-.285-.003H10.664c-.107 0-.214-.004-.32.004a1.103 1.103 0 0 0-.996.785 2.022 2.022 0 0 0-.062.557c-.004 4.45-.003 8.9-.003 13.35l.001.001Z"/><path fill="#fff" fill-opacity=".48" d="M26.403 17.445c0 1.168-.01 2.336.004 3.504.007.585-.239.975-.755 1.25a870.26 870.26 0 0 0-6.51 3.506c-.495.269-.945.276-1.445.004a698.13 698.13 0 0 0-6.511-3.504c-.53-.281-.77-.679-.768-1.279.014-2.336.012-4.672 0-7.008-.002-.585.238-.974.756-1.25a754.57 754.57 0 0 0 6.51-3.503c.483-.262.924-.289 1.413-.023 2.186 1.188 4.38 2.364 6.573 3.538.341.182.605.419.693.804.031.136.037.28.037.42.003 1.18.001 2.36.001 3.54l.002.001Zm-6.834 5.444 4.532-2.437v-4.898l-4.532 2.134v5.201Zm-2.315-.005v-5.202l-4.532-2.13v4.896l4.532 2.436Zm5.486-9.201-4.325-2.328c-1.439.782-2.86 1.526-4.317 2.332l4.32 2.03 4.323-2.034h-.001ZM18.432 29.33c.737 0 1.474.002 2.21-.001.258-.002.494.06.705.207.398.28.576.764.45 1.215a1.126 1.126 0 0 1-1.03.84c-.344.017-.69.006-1.034.006-1.189 0-2.378.003-3.566-.002-.521-.002-.94-.291-1.105-.743-.27-.733.252-1.5 1.052-1.518.772-.016 1.545-.003 2.318-.003Z"/></svg>