<svg xmlns="http://www.w3.org/2000/svg" width="328" height="477" fill="none"><path fill="#021414" d="M322.591 10.994c-2.029-6.417-31.103-.668-32.455-6.016-52.739-2.673-100.29-7.164-112.19-3.743-11.9 3.422-71.446-.834-75.051 0-3.605.835-2.832 2.237-8.114 3.106-5.281.87-25.6 1.07-49.04-2.138l-2.705-.968C33.572.7 14.64.38 14.64 3.375c0 2.994-8.565 6.238-12.847 7.485l-.052 1.563c-1.348 40.13-3.152 93.836.052 93.836 3.245 0 2.917 6.06 5.847 9.091H1.792l9.58 10.16-5.17 5.882-2 120.89c2.704 3.565 2.924 11.978 6.17 17.112 3.242 5.129.243 4.635-5.158 3.745l-.013-.002-3.057 62.416 7.79 9.625c0 1.248-1 4.064-1 5.347 0 1.284-2.155 2.674-3.733 3.209L6 424.891l-2.799 7.726-.057 26.737 8.79 14.972 8.969-2.139 18.345-2.673c9.692 1.604 20.915 4.812 23.079 4.812 2.704 0 28.397 2.674 29.75 2.674 1.352 0 19.608-1.604 22.312-1.604h45.481l12.846-2.676 2.705 1.606 5.409 1.07c-.451-2.674-1.082-3.96 0-6.954 1.082-2.995 9.466 1.785 13.523 6.954 6.536-.178 29.119-.428 32.365 0 3.245.428 16.271.265 35.428-1.874-1.352-.713-1.623-2.086 8.114-5.08 9.736-2.995 15.325 2.583 16.903 4.544 19.473 2.566 26.638-1.07 40.837-3.209l-2.705-73.697h-6.085l6.085-4.278 2.296-49.73c-2.282-.891-4.658-2.994-7.904-4.278-3.245-1.283.959-3.743 5.466-4.812v-8.021c-7.437.178-7.018.427-8.64 0-2.029-.535-2.029-3.209-2.029-4.813 0-1.283 3.273-4.456 7.26-5.882v-5.882l3.818-3.743-5.409-74.56-2.704-5.348 2.704-1.069 1.353-5.882-8.819-5.882 8.819-5.882c1.352-13.012 3.786-39.143 2.704-39.57-1.082-.428-3.958-3.744-5.761-5.348l5.761-4.278 1.352-2.139h-4.056c.45-2.317 1.352-7.272 1.352-8.555 0-1.284-4.099-18.517-3.648-32.064-.901-.535-1.704-1.818-1.704-2.674 0-.855 3.056-3.921 5.085-5.347l3.381-32.084c-.451-4.456-1.758-57.831-3.381-62.965Z"/></svg>