<svg xmlns="http://www.w3.org/2000/svg" width="367" height="77" fill="none"><mask id="a" width="367" height="77" x="0" y="0" maskUnits="userSpaceOnUse" style="mask-type:alpha"><path fill="#D9D9D9" d="M6.805 13.756c.68-2.445 5.387-5.604 7.655-9.17 2.552 5.349 39.979 2.292 45.082 0 4.083-1.835 91.298-2.293 134.396-2.293h51.036c2.552 0 26.369-2.293 30.622-2.293 3.402 0 21.832 1.528 30.622 2.293h34.024L360.656 0c1.418 4.585 7.996 5.961 5.954 11.463-2.041 5.503-7.088 12.483-9.356 15.285 2.552 7.388 7.655 22.621 7.655 24.455 0 2.293-2.552 15.285-4.253 15.285-1.361 0-51.887-1.019-76.554 0h-79.106c-4.82 0-14.631.612-15.311 3.057-.681 2.446-84.21 2.547-125.89 2.293.85-1.274 2.722-4.127 3.403-5.35.85-1.528-7.656-1.528-12.76-1.528-5.103 0-24.667 7.642-36.575 10.699C8.336 78.104 1.985 72.602 0 69.545c1.134-2.038 3.743-6.42 5.104-7.642 1.7-1.529 4.253-16.05 6.804-19.87 2.552-3.821.851-10.7 0-13.756-.85-3.057-5.954-11.464-5.103-14.52Z"/></mask><g mask="url(#a)"><path fill="#021414" d="M1.976 17.577C.275 16.05 7.08 3.057 7.08 1.528H34.3c6.804.51 21.094 1.223 23.816 0C60.838.305 250.353-1.529 344.77-2.293v3.821h20.414c0 3.567-.51 12.992-2.551 22.163-2.042 9.17 4.253 21.144 7.655 25.984-2.042 4.28-2.552 16.558-2.552 22.163l-134.395-1.529H55.564l2.552-2.293L4.528 70.31C5.378 59.1 7.08 36.072 7.08 33.626c0-3.057-3.403-14.52-5.104-16.049Z"/><path fill="#072121" d="M180.325 35.155c96.628 17.12 134.395-23.946 141.2-46.618L-10.211-3.82l-17.012 38.976c28.92-7.133 110.92-17.119 207.548 0Z"/></g></svg>