<svg xmlns="http://www.w3.org/2000/svg" width="291" height="87" fill="none"><g filter="url(#a)"><path fill="#78281E" d="M18.348 31.16c-1.182-1.105 3.545-10.502 3.545-11.607h18.905c4.726.368 14.651.884 16.542 0 1.89-.885 133.517-2.211 199.095-2.764l5.934.596 8.421.596c0 2.58-.531 10.969-1.949 17.602-1.418 6.633 2.954 15.293 5.317 18.793-1.418 3.096-1.772 11.977-1.772 16.03l-93.344-1.105H55.567l1.773-1.659-37.22 1.659c.591-8.108 1.773-24.764 1.773-26.533 0-2.21-2.364-10.502-3.545-11.607Z"/><mask id="b" width="256" height="57" x="16" y="17" maskUnits="userSpaceOnUse" style="mask-type:alpha"><path fill="#D9D9D9" d="M21.195 27.575c.472-1.816 3.736-4.16 5.31-6.808 1.77 3.971 27.73 1.702 31.27 0 2.832-1.361 63.327-1.702 93.221-1.702h35.4c1.77 0 18.291-1.702 21.241-1.702 2.36 0 15.143 1.135 21.24 1.702h23.6l14.16-1.702c.984 3.404 5.546 4.425 4.13 8.51-1.416 4.084-4.916 9.266-6.49 11.346 1.77 5.484 5.31 16.792 5.31 18.154 0 1.702-1.77 11.346-2.95 11.346-.944 0-35.99-.757-53.1 0h-54.871c-3.343 0-10.148.454-10.62 2.269-.472 1.815-58.41 1.891-87.32 1.702.59-.946 1.887-3.064 2.36-3.971.59-1.135-5.311-1.135-8.851-1.135-3.54 0-17.11 5.673-25.37 7.942-6.608 1.816-11.014-2.269-12.39-4.538.786-1.513 2.596-4.765 3.54-5.673 1.18-1.135 2.95-11.913 4.72-14.75 1.77-2.837.59-7.942 0-10.212-.59-2.269-4.13-8.509-3.54-10.778Z"/></mask><g mask="url(#b)"><path fill="#9D3325" d="M17.848 30.412c-1.18-1.135 3.54-10.779 3.54-11.913h18.88c4.72.378 14.632.907 16.52 0 1.888-.908 133.341-2.27 198.832-2.837V18.5h14.16c0 2.647-.354 9.644-1.77 16.451-1.416 6.808 2.95 15.696 5.31 19.289-1.416 3.177-1.77 12.291-1.77 16.452l-93.221-1.135H55.018l1.77-1.702-37.17 1.702c.59-8.32 1.77-25.415 1.77-27.23 0-2.27-2.36-10.78-3.54-11.914Z"/><path fill="#C85849" d="M141.555 43.46c67.025 12.707 93.221-17.777 97.941-34.606L9.394 14.527l-11.8 28.932c20.06-5.295 76.937-12.708 143.961 0Z"/></g></g><defs><filter id="a" width="290.525" height="88" x=".475" y="-1" color-interpolation-filters="sRGB" filterUnits="userSpaceOnUse"><feFlood flood-opacity="0" result="BackgroundImageFix"/><feColorMatrix in="SourceAlpha" result="hardAlpha" values="0 0 0 0 0 0 0 0 0 0 0 0 0 0 0 0 0 0 127 0"/><feOffset/><feGaussianBlur stdDeviation="8"/><feComposite in2="hardAlpha" operator="out"/><feColorMatrix values="0 0 0 0 0.784314 0 0 0 0 0.345098 0 0 0 0 0.286275 0 0 0 0.86 0"/><feBlend in2="BackgroundImageFix" result="effect1_dropShadow_808_11276"/><feBlend in="SourceGraphic" in2="effect1_dropShadow_808_11276" result="shape"/></filter></defs></svg>