<svg xmlns="http://www.w3.org/2000/svg" width="392" height="77" fill="none"><mask id="a" width="392" height="77" x="0" y="0" maskUnits="userSpaceOnUse" style="mask-type:alpha"><path fill="#D9D9D9" d="M7.268 13.756c.727-2.445 5.755-5.604 8.177-9.17 2.726 5.349 42.702 2.292 48.153 0C67.96 2.75 161.116 2.292 207.15 2.292h54.513c2.725 0 28.165-2.293 32.707-2.293 3.635 0 23.32 1.528 32.708 2.293h36.342L385.224 0c1.514 4.585 8.54 5.961 6.36 11.463-2.181 5.503-7.571 12.483-9.994 15.285 2.726 7.388 8.177 22.621 8.177 24.455 0 2.293-2.726 15.285-4.543 15.285-1.454 0-55.421-1.019-81.769 0H218.96c-5.149 0-15.627.612-16.354 3.057-.727 2.446-89.946 2.547-134.465 2.293.909-1.274 2.907-4.127 3.634-5.35.909-1.528-8.177-1.528-13.628-1.528-5.451 0-26.348 7.642-39.067 10.699C8.904 78.104 2.12 72.602 0 69.545c1.211-2.038 3.998-6.42 5.451-7.642 1.817-1.529 4.543-16.05 7.269-19.87 2.725-3.821.908-10.7 0-13.756-.909-3.057-6.36-11.464-5.452-14.52Z"/></mask><g mask="url(#a)"><path fill="#021414" d="M2.106 17.577C.29 16.05 7.557 3.057 7.557 1.528h29.074c7.268.51 22.532 1.223 25.44 0C64.977.305 267.401-1.529 368.25-2.293v3.821h21.805c0 3.567-.545 12.992-2.726 22.163-2.18 9.17 4.543 21.144 8.177 25.984-2.18 4.28-2.725 16.558-2.725 22.163l-143.551-1.529H59.345l2.725-2.293L4.832 70.31C5.74 59.1 7.557 36.072 7.557 33.626c0-3.057-3.634-14.52-5.45-16.049Z"/><path fill="#072121" d="M192.605 35.155c103.211 17.12 143.551-23.946 150.819-46.618L-10.909-3.82-29.08 35.155c30.89-7.133 118.474-17.119 221.685 0Z"/></g></svg>