<svg xmlns="http://www.w3.org/2000/svg" width="36" height="36" fill="none"><path fill="#fff" fill-opacity=".48" d="M8.884 4h-.008a.77.77 0 0 0-.59.287l-6.12 7.65a.768.768 0 0 0 .005.96l.002.004v.001l15.298 18.815.006.007c.15.18.37.276.587.276.229 0 .45-.105.594-.282l15.297-18.816.003-.004c.185-.227.173-.49.171-.482a.777.777 0 0 0-.167-.478l-6.12-7.65A.774.774 0 0 0 27.243 4H8.884Zm1.075 1.53h6.454l-4.58 5.407L9.96 5.53Zm9.756 0h6.454l-1.875 5.407-4.58-5.407Zm-1.651.419 4.83 5.701h-9.66l4.83-5.701Zm-9.449.376 1.847 5.325H4.355l4.26-5.325Zm18.898 0 4.26 5.325h-6.107l1.847-5.325ZM4.37 13.18h6.62l4.926 14.203L4.371 13.18Zm8.24 0h10.904L18.063 28.9 12.61 13.18Zm12.524 0h6.621L20.21 27.383l4.926-14.203Z"/></svg>