<svg xmlns="http://www.w3.org/2000/svg" width="1680" height="75" fill="none"><path fill="#021414" d="M372.354 70.707c-5.098 1.133-35.031-1.233-41.148.467-4.894 1.36-15.234 2.456-19.482 2.834l-20.585-2.834c-1.36-1.7-4.283-5.102-5.098-5.102-.816 0-2.04 1.512-2.549 2.268-12.915-.378-19.045-1.134-20.268-1.134-1.224 0-5.948-.756-8.157-1.134v3.401l-2.039-1.133-4.078-3.669c-1.53 1.512-4.691 2.762-5.098 3.669-.408.907-25.32-1.134-37.725-2.268l-5.608-5.07-5.608 5.07-5.608.867-1.019-2.268-5.098 2.268-55.706.365-3.569-7.07h-5.607c-1.36-5.857-4.385-9.233-5.608-9.233-1.53 0-4.079 0-4.588 1.7-.408 1.36-.17 5.833 0 12.068h-7.647c-1.02-3.779-3.365-10.656-4.588-7.936-1.224 2.721-3.23 6.582-4.079 10.172l-47.41 2.267-4.08-3.101v3.101L.005 71.54V0H1728.41v70.705l-15.01 3.337-55.01-3.337-5.51-5.636-13 5.637-4-2.268-15.51 2.268h-42.01V65.07c0-2.721-4.33-3.401-6.5-3.401v8.503l-7.5-1.701c-3.36-14.763-8.5-8.592-12.01 2.236-5.09 1.134-35.03-1.233-41.14.468-4.9 1.36-15.24 2.456-19.49 2.834l-20.58-2.834c-1.36-1.701-4.28-5.102-5.1-5.102-.81 0-2.04 1.511-2.55 2.267-12.91-.378-19.04-1.133-20.27-1.133-1.22 0-5.94-.756-8.15-1.134v3.401l-2.04-1.134-4.08-5.668c-1.53 1.511-4.69 4.761-5.1 5.668-.41.907-25.32-1.133-37.72-2.267l-5.61-5.07-5.61 5.07-5.61-1.134-1.02-2.267-5.09-.733-12.19 7.11c-4.89 1.36-15.23 2.456-19.48 2.834l-20.58-2.835c-1.36-1.7-4.29-5.101-5.1-5.101-.82 0-2.04 1.511-2.55 2.267-12.92-.378-19.04-1.134-20.27-1.134-1.22 0-5.95-.755-8.16-1.133v3.4l-2.03-1.133-4.08-5.668c-1.53 1.511-4.69 4.761-5.1 5.668-.41.907-25.32-1.134-37.73-2.267l-5.6-6.07-5.61 9.07-5.61-1.134-1.02-2.267-5.1 2.267-55.7.365-3.57-5.069h-5.61c-1.36-3.857-4.38-7.234-5.61-7.234-1.53 0-4.07 0-4.58 1.7-.41 1.361-.17 3.833 0 10.069h-7.65c-1.02-3.78-3.37-8.657-4.59-5.936-1.22 2.72-3.23 4.581-4.08 8.171l-47.41 2.267-4.08-5.101v5.102l-40.3 2.267-15.11 2.469h-10.001v-6.638c0-2.72-4.334-3.4-6.501-3.4v8.502l-7.503-1.7c-1.2-21-8.502-7.593-12.003 3.236-5.098 1.133-35.03-6.237-41.148-4.536-4.894 1.36-15.234 4.124-19.482 4.502l-20.585-2.834c-1.36-1.7-4.283-5.102-5.098-5.102-.816 0-2.039 1.511-2.549 2.267-12.915-.378-19.045-1.133-20.268-1.133-1.224 0-5.948-.756-8.157-1.134v3.401l-2.039-1.134-4.078-5.668c-1.53 1.511-4.691 4.761-5.098 5.668-.408.907-25.32-1.133-37.725-2.267l-5.608-9.07-5.608 9.07-5.608-1.134-1.019-2.267-5.098 2.267-55.706 7.535-3.569-7.07h-5.607c-1.36-5.857-4.385-7.233-5.608-7.233-1.529 0-4.079 0-4.588 1.7-.408 1.36-.17 1.833 0 8.068h-7.647c-1.02-3.779-3.365-6.657-4.588-3.936-1.224 2.721-3.229 6.582-4.079 10.172l-47.411-3.234-4.078-5.102v5.101l-40.301 2.268-3.414-.005c-.304-1.53-.718-4.455-.184-4.961-1.928.506-16.574 3.431-24.323 4.961l-20.006-3.336-15.004 3.336-55.016-3.336-5.502-7.637-13.004 7.638-4.001-2.269-15.504 2.269h-42.013v-7.638c0-2.72-4.334-1.4-6.502-1.4v4.502l-7.502.3c0-15.47-8.502-6.593-12.003 4.236Z"/></svg>