<svg xmlns="http://www.w3.org/2000/svg" width="108" height="28" fill="none"><path fill="#fff" fill-rule="evenodd" d="M95.403 10.959c.299 3.58-3.032 9.362-7.303 9.707-2.818.216-5.594-1.855-5.893-5.609-.299-3.624 3.118-9.577 7.559-9.707 2.733-.13 5.338 1.942 5.637 5.609Zm-54.278 6.687V14.54l-2.22-2.244 2.52-2.545 2.519 2.545-2.22 2.244v3.106h1.408c4.698-4.746 2.136-12.037-5.039-12.9v12.9h3.032ZM54.535.389l-1.196 1.208h-2.733v3.15h.47L54.962.82l-.427-.43Zm12 13.676v-.172c-.77-.216-1.41-.648-1.837-1.209-2.263-2.933.342-7.161 4.27-7.161 1.922 0 4.1 1.165 4.1 3.494v9.06c0 .475.214 1.554 1.196 2.244h-3.971c-.428-.388-.598-1.424-.598-1.898v-6.04l-3.502 3.537 2.306 2.33-2.52 2.546c-.896-.907-1.75-1.77-2.647-2.675v-4.013h3.203v-.043Zm34.078-1.553c-1.495-1.338-3.203-3.063-1.922-4.918 1.324-.044 3.758.862 5.381 1.121l-3.459 3.797Zm3.117-2.546 4.271-4.616-.427-.388c-.726.82-2.093 1.165-3.16.992-.897-.13-1.965-.388-3.374-.647-1.794-.345-7.046 5.307-2.562 9.578l-5.082 5.479.427.388.726-.776c.726-.734 1.964-.993 4.484 0 .897.345 1.836.604 2.733.69 2.306.216 8.498-9.233 2.007-10.484v-.216h-.043Zm-2.306 2.503-3.203 3.451c1.281 1.208 4.057 2.244 5.766 2.287 1.622-2.2-.129-5.393-2.563-5.738ZM61.666 5.393l-2.562 2.589V5.566c-1.324.259-2.648.302-3.972.259.342.215.641.647.641 1.035v11.347c0 1.812 2.178 2.675 2.947 2.114l2.562-1.985c-1.751.087-2.135-.82-2.135-1.294V8.5h.598l1.964 1.984 2.52-2.545-2.563-2.546Zm-13.708 4.4c0 5.092-4.697 10.485-8.285 10.485H38.18v3.926l-3.374 3.408v-7.291h-4.313l1.41-1.424c.853-.863 1.494-1.208 2.775-1.208h.128v-6.903c0-1.64.427-2.459 1.537-3.58l1.239-1.252V4.79c-2.819-.172-5.466.906-7.772 2.589 1.024-3.02 3.715-5.781 8.711-5.781 6.235-.087 9.438 3.667 9.438 8.197Zm36.854-3.968h-5.808V3.193l-5.21 5.263h1.837v9.363c0 1.812 2.904 3.192 3.672 2.588l2.69-2.028c-1.75.087-3.031-1.078-3.031-1.898V8.456h3.203l2.647-2.631ZM49.88 6.86c0-.388-.257-.863-.64-1.035a20.49 20.49 0 0 0 3.97-.26v13.418c0 .475 0 .906.257 1.338h-3.843c.256-.432.256-.863.256-1.338V6.86Zm19.815 3.106c0-1.682-1.367-2.459-2.563-2.459-3.202 0-3.63 5.695.855 5.954l.81-.82c.77-.82.898-1.768.898-2.675Zm21.822 8.111c1.11-6.342.512-11.303-5.51-10.138-1.067 6.342-.469 11.26 5.51 10.138Z" clip-rule="evenodd"/><path fill="#FE1F20" fill-rule="evenodd" d="m13.837 28 4.783-11.908c.256-.647.427-1.337.427-2.114 0-2.89-2.349-5.263-5.21-5.263-2.861 0-5.21 2.373-5.21 5.263 0 .734.17 1.467.427 2.114L13.837 28Zm0-16.524a2.537 2.537 0 0 1 2.52 2.545c0 1.381-1.11 2.546-2.52 2.546a2.537 2.537 0 0 1-2.52-2.546c.043-1.423 1.153-2.545 2.52-2.545Zm.128 7.809a5.415 5.415 0 0 0 3.075-1.079l-.598 1.467-2.477 6.17v-6.558Zm-7.901 2.589 1.88-4.487a6.748 6.748 0 0 0 2.562 2.588l-4.442 1.899Zm15.588 0-4.441-1.899a6.747 6.747 0 0 0 2.562-2.588l1.88 4.487Zm0-15.704-4.441 1.898a6.747 6.747 0 0 1 2.562 2.589l1.88-4.487Zm-15.588 0 1.88 4.487a6.748 6.748 0 0 1 2.562-2.589L6.064 6.17ZM0 14.02l7.858-3.235a6.85 6.85 0 0 0-.812 3.236c0 1.165.3 2.243.812 3.236L0 14.02Zm2.178.087 4.399 1.812a6.631 6.631 0 0 1-.257-1.812H2.178ZM13.836 0l-3.16 7.938c.94-.517 2.05-.82 3.203-.82s2.22.303 3.202.82L13.836 0Zm.128 2.2 1.794 4.444a6.44 6.44 0 0 0-1.794-.259V2.2Zm13.751 11.82-7.858 3.237a6.85 6.85 0 0 0 .812-3.236c0-1.165-.3-2.244-.812-3.236l7.858 3.236Zm-2.178.087h-4.185c0 .604-.085 1.208-.256 1.812l4.441-1.812Z" clip-rule="evenodd"/><path fill="#fff" fill-rule="evenodd" d="M10.59 2.503c-1.964.56-3.715 1.64-5.124 3.02a11.87 11.87 0 0 0-2.99 5.177l-.64-.259a12.69 12.69 0 0 1 3.16-5.393 12.508 12.508 0 0 1 5.338-3.193l.256.648ZM25.239 10.7c-.555-1.985-1.623-3.754-2.99-5.177a11.696 11.696 0 0 0-5.124-3.02l.256-.648a12.508 12.508 0 0 1 5.338 3.193 12.69 12.69 0 0 1 3.16 5.393l-.64.259Zm-8.114 14.798c1.964-.56 3.715-1.64 5.125-3.02a11.87 11.87 0 0 0 2.989-5.177l.64.259a12.69 12.69 0 0 1-3.16 5.393 12.509 12.509 0 0 1-5.338 3.192l-.256-.647ZM2.477 17.3c.555 1.985 1.622 3.754 2.989 5.178a11.696 11.696 0 0 0 5.124 3.02l-.256.647a12.508 12.508 0 0 1-5.338-3.192 12.69 12.69 0 0 1-3.16-5.393l.64-.26Z" clip-rule="evenodd"/></svg>