<svg xmlns="http://www.w3.org/2000/svg" width="36" height="37" fill="none"><path fill="#fff" fill-opacity=".48" fill-rule="evenodd" d="M17.995 2.975a5.855 5.855 0 0 0-5.453 3.722h10.906a5.855 5.855 0 0 0-5.453-3.722Zm-7.827 5.852c0-.051 0-.103.002-.155H5.304v25.386H30.69V8.672h-4.869l.002.155v1.14a.987.987 0 1 1-1.975 0v-1.14c0-.051 0-.103-.002-.155H12.145a5.737 5.737 0 0 0-.002.155v1.14a.987.987 0 0 1-1.975 0v-1.14ZM17.996 1a7.831 7.831 0 0 0-7.535 5.697H4.317a.987.987 0 0 0-.987.988v27.36c0 .545.442.987.987.987h27.36a.987.987 0 0 0 .988-.987V7.685a.987.987 0 0 0-.987-.988H25.53A7.83 7.83 0 0 0 17.995 1Zm-4.933 14a.85.85 0 0 0-.632.28l-3.063 3.405a.85.85 0 0 0-.014 1.122l8.17 9.532a.85.85 0 0 0 1.302-.014l7.83-9.532a.85.85 0 0 0-.025-1.108l-3.064-3.404a.85.85 0 0 0-.631-.282h-9.873Zm-1.155 3.403.869-.965.38.965h-1.249Zm-.06 1.7h1.98l1.692 4.285-3.672-4.285Zm12.353 0-3.494 4.254 1.567-4.254h1.927Zm-8.545 0h4.806l-2.32 6.298-2.486-6.298Zm-.67-1.7h6.103l.628-1.704h-7.404l.672 1.704Zm9.105 0h-1.19l.345-.938.845.938Z" clip-rule="evenodd"/></svg>