<svg xmlns="http://www.w3.org/2000/svg" width="568" height="298" fill="none"><path fill="#051D1D" d="M19.489 3.804C11.153 5.231 13.413 25.68 6.467 26.631 2.994 63.722-2.84 140 1.605 148.37c4.444 8.369 1.852 38.677 0 52.785.926-1.268 1.111-1.902 8.891 5.707 7.78 7.608 1.39 42.482-2.777 58.967l-6.114 1.902c-.695 6.658-1.112 19.973 2.778 19.973s8.104 6.024 9.725 9.036l2.024.036c52.131.948 121.902 2.217 121.902-.036 0-2.283 7.872-6.975 11.808-9.036v9.036l13.199-12.365 7.64 8.56h122.617c4.631-1.902 15.56-6.277 22.228-8.56 6.669-2.282 6.02 4.756 4.862 8.56l63.868 2.854 12.503-6.183h6.947c1.667 0 3.473 2.22 4.168 3.329l99.693-3.329 2.778 3.329 34.732 2.854 19.45-6.183-2.779-18.546-3.473-19.022c2.084-6.816 6.252-20.828 6.252-22.35 0-1.902 3.473-19.973 3.473-20.924 0-.951-2.084-13.791-2.084-15.693v-44.226l-9.725-9.035 8.336-1.902 1.389-3.805c-3.473.318-11.392.761-15.282 0-3.89-.76 8.567-6.657 15.282-9.51-.231-4.597-.556-14.362 0-16.644.556-2.283-4.862-29.801-7.641-43.275-.926.951-3.751 1.141-7.641-5.707-3.89-6.847.232-10.779 2.779-11.888 3.334-13.696-1.39-37.093-4.168-47.079l-86.362 1.902v4.28l-5.557-4.28-64.601 1.902c-1.158 3.012-3.89 9.606-5.557 11.889-1.667 2.283-4.863-3.487-6.252-6.658h-10.42c.232 5.231.556 15.979 0 17.12-.694 1.427-4.167 1.427-6.251 1.427-1.667 0-5.789-9.828-7.641-14.742h-7.641L344.1 5.23l-45.219 3.804-6.946 1.902-1.389-1.902-7.641-.95-7.641 7.608-7.641-7.609c-16.903-.95-50.847-2.663-51.403-1.902-.556.76-4.862 3.487-6.946 4.755l-5.557-4.755-2.779-.951v2.853c-3.01-.317-9.447-.95-11.114-.95-1.667 0-24.054-.635-41.652-.952-.694.634-2.361 1.902-3.473 1.902-1.111 0-5.094-2.853-6.946-4.28L96.075 1.427c-5.789.317-69.918 1.236-76.586 2.377Z"/><path fill="#0A2B2B" fill-rule="evenodd" d="M245.854 12.06c8.19.524 15.028.962 15.57 2.359 1.083 2.796 10.084 6.409 14.448 7.865l8.127-7.865h39.282l25.736 7.865c2.859 4.37 13.545 9.788 17.157 10.487 4.515.874 12.191-8.739 12.191-8.739s6.171 1.748 9.933 3.495c2.107-2.184 7.857-7.865 13.997-13.108 4.408-3.764 17.6-8.392 28.462-11.734l26.567-.782 5.557 4.28v-4.28L511.768.826c5.906 1.324 11.911 2.907 16.458 4.105 2.789.735 5.029 1.326 6.362 1.623 4.695 1.049 8.578 3.059 9.933 3.933 1.655 8.302 4.696 25.954 3.612 30.15-.26 1.005-.902 2.285-1.646 3.767-3.133 6.242-8.069 16.076 6.161 24.197 3.01 10.487 9.03 32.334 9.03 35.83 0 4.369-3.612 17.041-4.966 17.041-1.355 0-12.191 6.554-12.191 11.361 0 3.845 5.418 4.515 8.127 4.369l-2.709 3.496c4.515 2.33 13.184 7.778 11.739 10.924-1.406 3.062-.622 17.78-.207 25.59.119 2.22.207 3.882.207 4.559 0 1.219 1.936 4.52 4.236 8.409v2.892c0 1.114.716 5.981 1.308 10.014.419 2.851.776 5.285.776 5.679 0 .394-.596 3.725-1.294 7.628-.649 3.631-1.387 7.757-1.816 10.473l-1.629 3.407c-4.967 10.377-9.934 20.755-10.159 23.595-.362 4.544 1.354 18.206 2.257 24.469-3.01 2.913-9.391 8.739-10.836 8.739-1.806 0-29.348-.874-29.8-3.495a61.463 61.463 0 0 0-.903-4.37c-31.154 1.893-93.914 6.117-95.72 7.865-2.258 2.185-8.579-1.748-8.579-3.495 0-1.399-9.632-.583-14.448 0l-16.706 6.554h-51.924c1.054-3.35 1.445-10.225-5.418-10.924-8.578-.874-23.93 3.059-27.993 7.865-1.55 1.833-4.257 3.938-7.072 5.86H174.219c-.964-1.455-1.918-3.065-2.829-4.605-1.068-1.802-2.077-3.506-2.977-4.75-2.529-3.496-8.88-1.457-11.74 0l-8.127-4.37-14.448 7.865c-12.35 2.799-31.943 7.122-49.644 10.778-21.59-.227-46.5-.68-68.32-1.077h-.003l-2.025-.037c-1.62-3.011-5.835-9.035-9.724-9.035-3.89 0-3.474-13.315-2.779-19.973l6.114-1.902c4.167-16.486 10.557-51.359 2.777-58.967-7.622-7.455-7.954-6.997-8.836-5.783l-.055.076c1.2-9.142 2.711-25.086 2.417-37.456L22.223 3.529c9.374-.675 36.715-1.255 55.472-1.652 9.376-.2 16.607-.353 18.378-.45l41.678 2.378c1.853 1.427 5.835 4.28 6.947 4.28 1.111 0 2.778-1.268 3.473-1.902 10.712.193 23.198.503 31.705.717l28.27 7.519 13.996-5.243c5.95 1.749 15.509 2.36 23.712 2.885Z" clip-rule="evenodd"/></svg>