<svg xmlns="http://www.w3.org/2000/svg" width="41" height="40" fill="none"><path fill="#1C5153" d="M40.12 20.092c.928 1.867-1.548 12.752-7.43 16.173-4.333 0-6.87 3.732-12.38 3.732-6.263 0-13.31-3.732-16.405-9.019C1.57 26.991.5 24.793.5 20.092c0-3.123 0-5.286 2.786-8.085C6.5 5.377 12.476.187 20.31.187c1.71 0 4.298 1.769 5.88 2.178 5.262 0 11.762 7.775 11.762 7.775s1.239 8.085 2.167 9.952Z"/><mask id="a" width="41" height="40" x="0" y="0" maskUnits="userSpaceOnUse" style="mask-type:alpha"><path fill="#D9D9D9" d="M40.31 20.092c.932 1.867-1.556 12.752-7.465 16.173-4.354 0-6.904 3.732-12.44 3.732-6.293 0-13.374-3.732-16.484-9.019C1.576 26.991.5 24.793.5 20.092c0-3.123 0-5.286 2.8-8.085C6.53 5.377 12.533.187 20.404.187c1.718 0 4.318 1.769 5.909 2.178 5.287 0 11.818 7.775 11.818 7.775s1.244 8.085 2.177 9.952Z"/></mask><g mask="url(#a)"><path fill="#267375" d="M36.886 9.83c-.995-1.99-1.866-4.146-1.866-5.908 0-.622-.39-1.839-.933-.933-.933 1.555-4.665.933-5.598.933-.933 0-5.91-1.866-6.531-1.866-.622 0-3.732.622-4.665.933-.934.31-5.599-1.555-6.532-1.555-.933 0-5.287 6.842-8.086 6.842-2.8 0-3.421 4.354-3.421 6.531 0 1.742 1.037 4.25 1.555 5.287.415.933 1.368 2.924 1.866 3.421.622.622 1.555 2.488 2.8 5.598 1.243 3.11 9.018 7.775 9.018 7.775h4.976c.933 0 7.465-.621 7.465-.621s3.573-1.273 5.439-2.206 3.891-4.637 5.135-6.814c1.244-2.177 1.555-5.598 1.555-5.909 0-.31-.933-9.02-2.177-11.507Z"/></g><path fill="#072121" d="M30.96 14c-.77.35-1.6.58-2.46.69.88-.53 1.56-1.37 1.88-2.38-.83.5-1.75.85-2.72 1.05-.79-.86-1.9-1.36-3.16-1.36-2.35 0-4.27 1.92-4.27 4.29 0 .34.04.67.11.98-3.56-.18-6.73-1.89-8.84-4.48-.37.63-.58 1.37-.58 2.15 0 1.49.75 2.81 1.91 3.56-.71 0-1.37-.2-1.95-.5v.03c0 2.08 1.48 3.82 3.44 4.21a4.22 4.22 0 0 1-1.93.07 4.28 4.28 0 0 0 4 2.98 8.521 8.521 0 0 1-5.33 1.84c-.34 0-.68-.02-1.02-.06 1.9 1.22 4.16 1.93 6.58 1.93 7.88 0 12.21-6.54 12.21-12.21 0-.19 0-.37-.01-.56.84-.6 1.56-1.36 2.14-2.23Z"/></svg>